<svg width="2280" height="704" viewBox="0 0 2280 704" fill="none" xmlns="http://www.w3.org/2000/svg">
<path d="M830.103 535.135L830.739 534.763L830.799 534.823C830.751 535.695 830.727 536.567 830.727 537.439C830.727 537.623 830.719 537.843 830.703 538.099C830.695 538.355 830.699 538.603 830.715 538.843C830.731 539.083 830.775 539.283 830.847 539.443C830.919 539.603 831.035 539.683 831.195 539.683C831.283 539.683 831.403 539.659 831.555 539.611C831.707 539.563 831.847 539.515 831.975 539.467L832.059 539.755C831.899 539.851 831.727 539.955 831.543 540.067C831.359 540.171 831.179 540.259 831.003 540.331C830.827 540.411 830.675 540.451 830.547 540.451C830.323 540.451 830.163 540.383 830.067 540.247C829.971 540.111 829.903 539.943 829.863 539.743L829.683 539.695C829.387 539.887 829.075 540.063 828.747 540.223C828.419 540.375 828.079 540.451 827.727 540.451C827.391 540.451 827.111 540.379 826.887 540.235C826.663 540.091 826.483 539.903 826.347 539.671C826.211 539.439 826.111 539.187 826.047 538.915C825.991 538.635 825.963 538.359 825.963 538.087C825.963 537.663 826.015 537.251 826.119 536.851C826.231 536.451 826.399 536.091 826.623 535.771C826.855 535.443 827.151 535.187 827.511 535.003C827.871 534.811 828.307 534.715 828.819 534.715C829.011 534.715 829.223 534.751 829.455 534.823C829.695 534.895 829.911 534.999 830.103 535.135ZM829.839 539.119V536.359C829.839 536.199 829.831 536.047 829.815 535.903C829.799 535.759 829.743 535.635 829.647 535.531C829.543 535.419 829.419 535.327 829.275 535.255C829.131 535.175 828.983 535.135 828.831 535.135C828.391 535.135 828.011 535.287 827.691 535.591C827.555 535.719 827.415 535.955 827.271 536.299C827.135 536.643 827.059 537.119 827.043 537.727C827.035 537.975 827.055 538.227 827.103 538.483C827.151 538.731 827.243 538.959 827.379 539.167C827.507 539.367 827.679 539.499 827.895 539.563C828.119 539.627 828.343 539.659 828.567 539.659C828.799 539.659 829.023 539.603 829.239 539.491C829.463 539.379 829.663 539.255 829.839 539.119ZM835.885 532.375L835.957 532.315L837.985 532.099L838.057 532.183C838.009 532.671 837.969 533.159 837.937 533.647C837.905 534.135 837.889 534.627 837.889 535.123V535.519L837.997 535.579C838.317 535.339 838.653 535.131 839.005 534.955C839.357 534.779 839.737 534.691 840.145 534.691C840.521 534.691 840.833 534.783 841.081 534.967C841.329 535.143 841.517 535.379 841.645 535.675C841.773 535.963 841.837 536.275 841.837 536.611C841.837 536.875 841.821 537.139 841.789 537.403C841.757 537.667 841.697 537.927 841.609 538.183C841.473 538.607 841.237 538.991 840.901 539.335C840.573 539.671 840.189 539.939 839.749 540.139C839.317 540.331 838.873 540.427 838.417 540.427C838.217 540.427 838.005 540.387 837.781 540.307C837.565 540.227 837.381 540.071 837.229 539.839C837.085 539.607 837.013 539.271 837.013 538.831V533.119C837.013 532.975 836.989 532.879 836.941 532.831C836.901 532.783 836.801 532.751 836.641 532.735C836.481 532.711 836.229 532.675 835.885 532.627V532.375ZM837.937 536.143C837.929 536.343 837.917 536.571 837.901 536.827C837.893 537.083 837.889 537.327 837.889 537.559C837.889 538.007 837.913 538.407 837.961 538.759C838.017 539.103 838.129 539.371 838.297 539.563C838.465 539.755 838.725 539.851 839.077 539.851C839.501 539.851 839.841 539.739 840.097 539.515C840.361 539.291 840.549 539.007 840.661 538.663C840.781 538.311 840.841 537.951 840.841 537.583C840.841 537.143 840.801 536.795 840.721 536.539C840.649 536.275 840.569 536.079 840.481 535.951C840.401 535.831 840.289 535.715 840.145 535.603C840.001 535.491 839.813 535.435 839.581 535.435C839.261 535.435 838.965 535.503 838.693 535.639C838.421 535.767 838.169 535.935 837.937 536.143ZM845.791 538.963H845.923L846.055 539.107C845.919 539.315 845.759 539.523 845.575 539.731C845.391 539.939 845.187 540.111 844.963 540.247C844.739 540.375 844.495 540.439 844.231 540.439C844.031 540.439 843.855 540.395 843.703 540.307C843.559 540.211 843.447 540.043 843.367 539.803C843.287 539.555 843.247 539.203 843.247 538.747L843.331 534.211C843.331 534.011 843.327 533.799 843.319 533.575C843.319 533.343 843.303 533.155 843.271 533.011C843.247 532.883 843.175 532.799 843.055 532.759C842.935 532.711 842.799 532.683 842.647 532.675C842.495 532.667 842.355 532.659 842.227 532.651V532.375L842.299 532.315L844.279 532.075L844.351 532.159C844.327 532.999 844.291 533.839 844.243 534.679C844.203 535.519 844.183 536.359 844.183 537.199C844.183 537.591 844.179 537.963 844.171 538.315C844.171 538.667 844.207 538.955 844.279 539.179C844.359 539.395 844.519 539.511 844.759 539.527C844.959 539.527 845.143 539.467 845.311 539.347C845.479 539.219 845.639 539.091 845.791 538.963ZM848.836 540.475C848.284 540.475 847.84 540.355 847.504 540.115C847.176 539.867 846.936 539.551 846.784 539.167C846.632 538.783 846.54 538.379 846.508 537.955C846.508 537.539 846.544 537.123 846.616 536.707C846.696 536.291 846.88 535.927 847.168 535.615C847.448 535.303 847.788 535.079 848.188 534.943C848.596 534.799 849.008 534.727 849.424 534.727C850.016 534.727 850.484 534.859 850.828 535.123C851.172 535.387 851.42 535.727 851.572 536.143C851.724 536.559 851.8 536.991 851.8 537.439C851.8 537.831 851.748 538.215 851.644 538.591C851.548 538.967 851.368 539.303 851.104 539.599C850.824 539.919 850.48 540.147 850.072 540.283C849.672 540.411 849.26 540.475 848.836 540.475ZM847.636 536.515C847.604 536.667 847.58 536.819 847.564 536.971C847.548 537.123 847.54 537.279 847.54 537.439C847.54 537.687 847.564 537.959 847.612 538.255C847.66 538.551 847.74 538.831 847.852 539.095C847.972 539.351 848.136 539.563 848.344 539.731C848.56 539.899 848.832 539.983 849.16 539.983C849.488 539.983 849.752 539.911 849.952 539.767C850.16 539.623 850.32 539.435 850.432 539.203C850.544 538.971 850.62 538.719 850.66 538.447C850.708 538.175 850.732 537.915 850.732 537.667C850.732 537.419 850.712 537.155 850.672 536.875C850.632 536.587 850.556 536.315 850.444 536.059C850.34 535.803 850.18 535.595 849.964 535.435C849.756 535.275 849.484 535.195 849.148 535.195C848.828 535.195 848.524 535.303 848.236 535.519C847.948 535.735 847.748 536.067 847.636 536.515ZM856.649 539.683C856.337 539.859 856.009 540.031 855.665 540.199C855.329 540.359 854.973 540.439 854.597 540.439C854.269 540.439 853.973 540.343 853.709 540.151C853.445 539.951 853.237 539.675 853.085 539.323C852.933 538.971 852.857 538.563 852.857 538.099C852.857 537.387 852.977 536.779 853.217 536.275C853.465 535.771 853.797 535.387 854.213 535.123C854.629 534.859 855.093 534.727 855.605 534.727C855.853 534.727 856.097 534.759 856.337 534.823C856.585 534.879 856.809 534.983 857.009 535.135L857.621 534.787L857.789 534.859C857.773 535.131 857.757 535.403 857.741 535.675C857.733 535.939 857.721 536.235 857.705 536.563C857.697 536.891 857.689 537.279 857.681 537.727C857.681 538.167 857.681 538.699 857.681 539.323C857.681 539.555 857.665 539.863 857.633 540.247C857.609 540.623 857.537 540.987 857.417 541.339C857.321 541.603 857.181 541.831 856.997 542.023C856.813 542.223 856.661 542.367 856.541 542.455C856.237 542.687 855.929 542.851 855.617 542.947C855.305 543.051 854.965 543.103 854.597 543.103C854.333 543.103 854.065 543.059 853.793 542.971C853.521 542.883 853.237 542.703 852.941 542.431L853.529 541.687H853.697C853.769 541.831 853.873 541.971 854.009 542.107C854.145 542.251 854.289 542.371 854.441 542.467C854.601 542.563 854.753 542.611 854.897 542.611C855.321 542.611 855.665 542.483 855.929 542.227C856.201 541.971 856.401 541.627 856.529 541.195C856.665 540.763 856.741 540.287 856.757 539.767L856.649 539.683ZM856.757 539.119V535.951C856.741 535.671 856.621 535.467 856.397 535.339C856.181 535.203 855.945 535.135 855.689 535.135C855.337 535.135 855.045 535.227 854.813 535.411C854.581 535.587 854.397 535.819 854.261 536.107C854.125 536.387 854.029 536.683 853.973 536.995C853.917 537.307 853.889 537.599 853.889 537.871C853.889 538.231 853.961 538.547 854.105 538.819C854.249 539.091 854.425 539.303 854.633 539.455C854.849 539.607 855.057 539.683 855.257 539.683C855.441 539.683 855.629 539.651 855.821 539.587C856.021 539.523 856.205 539.447 856.373 539.359C856.541 539.271 856.669 539.191 856.757 539.119ZM867.122 535.135L867.758 534.763L867.818 534.823C867.77 535.695 867.746 536.567 867.746 537.439C867.746 537.623 867.738 537.843 867.722 538.099C867.714 538.355 867.718 538.603 867.734 538.843C867.75 539.083 867.794 539.283 867.866 539.443C867.938 539.603 868.054 539.683 868.214 539.683C868.302 539.683 868.422 539.659 868.574 539.611C868.726 539.563 868.866 539.515 868.994 539.467L869.078 539.755C868.918 539.851 868.746 539.955 868.562 540.067C868.378 540.171 868.198 540.259 868.022 540.331C867.846 540.411 867.694 540.451 867.566 540.451C867.342 540.451 867.182 540.383 867.086 540.247C866.99 540.111 866.922 539.943 866.882 539.743L866.702 539.695C866.406 539.887 866.094 540.063 865.766 540.223C865.438 540.375 865.098 540.451 864.746 540.451C864.41 540.451 864.13 540.379 863.906 540.235C863.682 540.091 863.502 539.903 863.366 539.671C863.23 539.439 863.13 539.187 863.066 538.915C863.01 538.635 862.982 538.359 862.982 538.087C862.982 537.663 863.034 537.251 863.138 536.851C863.25 536.451 863.418 536.091 863.642 535.771C863.874 535.443 864.17 535.187 864.53 535.003C864.89 534.811 865.326 534.715 865.838 534.715C866.03 534.715 866.242 534.751 866.474 534.823C866.714 534.895 866.93 534.999 867.122 535.135ZM866.858 539.119V536.359C866.858 536.199 866.85 536.047 866.834 535.903C866.818 535.759 866.762 535.635 866.666 535.531C866.562 535.419 866.438 535.327 866.294 535.255C866.15 535.175 866.002 535.135 865.85 535.135C865.41 535.135 865.03 535.287 864.71 535.591C864.574 535.719 864.434 535.955 864.29 536.299C864.154 536.643 864.078 537.119 864.062 537.727C864.054 537.975 864.074 538.227 864.122 538.483C864.17 538.731 864.262 538.959 864.398 539.167C864.526 539.367 864.698 539.499 864.914 539.563C865.138 539.627 865.362 539.659 865.586 539.659C865.818 539.659 866.042 539.603 866.258 539.491C866.482 539.379 866.682 539.255 866.858 539.119ZM868.909 532.375L868.981 532.315L871.009 532.099L871.081 532.183C871.033 532.671 870.993 533.159 870.961 533.647C870.929 534.135 870.913 534.627 870.913 535.123V535.519L871.021 535.579C871.341 535.339 871.677 535.131 872.029 534.955C872.381 534.779 872.761 534.691 873.169 534.691C873.545 534.691 873.857 534.783 874.105 534.967C874.353 535.143 874.541 535.379 874.669 535.675C874.797 535.963 874.861 536.275 874.861 536.611C874.861 536.875 874.845 537.139 874.813 537.403C874.781 537.667 874.721 537.927 874.633 538.183C874.497 538.607 874.261 538.991 873.925 539.335C873.597 539.671 873.213 539.939 872.773 540.139C872.341 540.331 871.897 540.427 871.441 540.427C871.241 540.427 871.029 540.387 870.805 540.307C870.589 540.227 870.405 540.071 870.253 539.839C870.109 539.607 870.037 539.271 870.037 538.831V533.119C870.037 532.975 870.013 532.879 869.965 532.831C869.925 532.783 869.825 532.751 869.665 532.735C869.505 532.711 869.253 532.675 868.909 532.627V532.375ZM870.961 536.143C870.953 536.343 870.941 536.571 870.925 536.827C870.917 537.083 870.913 537.327 870.913 537.559C870.913 538.007 870.937 538.407 870.985 538.759C871.041 539.103 871.153 539.371 871.321 539.563C871.489 539.755 871.749 539.851 872.101 539.851C872.525 539.851 872.865 539.739 873.121 539.515C873.385 539.291 873.573 539.007 873.685 538.663C873.805 538.311 873.865 537.951 873.865 537.583C873.865 537.143 873.825 536.795 873.745 536.539C873.673 536.275 873.593 536.079 873.505 535.951C873.425 535.831 873.313 535.715 873.169 535.603C873.025 535.491 872.837 535.435 872.605 535.435C872.285 535.435 871.989 535.503 871.717 535.639C871.445 535.767 871.193 535.935 870.961 536.143ZM878.25 540.475C877.698 540.475 877.254 540.355 876.918 540.115C876.59 539.867 876.35 539.551 876.198 539.167C876.046 538.783 875.954 538.379 875.922 537.955C875.922 537.539 875.958 537.123 876.03 536.707C876.11 536.291 876.294 535.927 876.582 535.615C876.862 535.303 877.202 535.079 877.602 534.943C878.01 534.799 878.422 534.727 878.838 534.727C879.43 534.727 879.898 534.859 880.242 535.123C880.586 535.387 880.834 535.727 880.986 536.143C881.138 536.559 881.214 536.991 881.214 537.439C881.214 537.831 881.162 538.215 881.058 538.591C880.962 538.967 880.782 539.303 880.518 539.599C880.238 539.919 879.894 540.147 879.486 540.283C879.086 540.411 878.674 540.475 878.25 540.475ZM877.05 536.515C877.018 536.667 876.994 536.819 876.978 536.971C876.962 537.123 876.954 537.279 876.954 537.439C876.954 537.687 876.978 537.959 877.026 538.255C877.074 538.551 877.154 538.831 877.266 539.095C877.386 539.351 877.55 539.563 877.758 539.731C877.974 539.899 878.246 539.983 878.574 539.983C878.902 539.983 879.166 539.911 879.366 539.767C879.574 539.623 879.734 539.435 879.846 539.203C879.958 538.971 880.034 538.719 880.074 538.447C880.122 538.175 880.146 537.915 880.146 537.667C880.146 537.419 880.126 537.155 880.086 536.875C880.046 536.587 879.97 536.315 879.858 536.059C879.754 535.803 879.594 535.595 879.378 535.435C879.17 535.275 878.898 535.195 878.562 535.195C878.242 535.195 877.938 535.303 877.65 535.519C877.362 535.735 877.162 536.067 877.05 536.515ZM889.412 539.047L889.544 539.275C889.36 539.435 889.156 539.603 888.932 539.779C888.708 539.955 888.484 540.103 888.26 540.223C888.036 540.343 887.82 540.403 887.612 540.403C887.34 540.403 887.14 540.323 887.012 540.163C886.884 539.995 886.808 539.787 886.784 539.539L886.688 539.527C886.464 539.663 886.22 539.803 885.956 539.947C885.7 540.083 885.44 540.199 885.176 540.295C884.92 540.383 884.672 540.427 884.432 540.427C884.088 540.427 883.824 540.351 883.64 540.199C883.464 540.047 883.34 539.859 883.268 539.635C883.204 539.411 883.172 539.187 883.172 538.963C883.172 538.867 883.172 538.727 883.172 538.543C883.18 538.359 883.188 538.167 883.196 537.967C883.204 537.767 883.208 537.579 883.208 537.403C883.216 537.227 883.22 537.095 883.22 537.007C883.22 536.639 883.212 536.363 883.196 536.179C883.188 535.987 883.168 535.851 883.136 535.771C883.112 535.683 883.072 535.611 883.016 535.555C882.952 535.483 882.84 535.447 882.68 535.447C882.6 535.447 882.472 535.487 882.296 535.567C882.12 535.647 881.964 535.727 881.828 535.807L881.672 535.567C881.832 535.447 882.004 535.319 882.188 535.183C882.38 535.047 882.572 534.931 882.764 534.835C882.956 534.739 883.136 534.691 883.304 534.691C883.608 534.691 883.812 534.775 883.916 534.943C884.02 535.111 884.076 535.391 884.084 535.783C884.092 536.167 884.096 536.699 884.096 537.379C884.096 537.787 884.108 538.167 884.132 538.519C884.164 538.871 884.252 539.155 884.396 539.371C884.548 539.587 884.808 539.695 885.176 539.695C885.448 539.695 885.72 539.627 885.992 539.491C886.264 539.347 886.516 539.203 886.748 539.059C886.748 538.667 886.748 538.227 886.748 537.739C886.756 537.243 886.76 536.783 886.76 536.359C886.76 536.079 886.76 535.831 886.76 535.615C886.76 535.391 886.756 535.215 886.748 535.087L887.672 534.667L887.828 534.799C887.732 535.911 887.684 537.023 887.684 538.135C887.684 538.375 887.692 538.603 887.708 538.819C887.724 539.027 887.772 539.199 887.852 539.335C887.94 539.463 888.08 539.527 888.272 539.527C888.432 539.527 888.608 539.471 888.8 539.359C888.992 539.247 889.164 539.135 889.316 539.023L889.412 539.047ZM890.896 533.323L891.904 532.975L891.988 533.035C891.956 533.379 891.928 533.711 891.904 534.031C891.88 534.343 891.864 534.675 891.856 535.027L891.928 535.087H893.464L893.524 535.135L893.428 535.447L893.356 535.507H891.928L891.856 535.579V537.847C891.856 538.127 891.872 538.407 891.904 538.687C891.944 538.967 892.024 539.199 892.144 539.383C892.272 539.559 892.46 539.647 892.708 539.647C892.86 539.647 893.036 539.595 893.236 539.491C893.436 539.379 893.624 539.267 893.8 539.155L893.944 539.179L894.028 539.359C893.756 539.615 893.448 539.855 893.104 540.079C892.76 540.303 892.412 540.415 892.06 540.415C891.924 540.415 891.772 540.387 891.604 540.331C891.444 540.283 891.308 540.187 891.196 540.043C891.116 539.931 891.056 539.811 891.016 539.683C890.976 539.555 890.948 539.355 890.932 539.083C890.924 538.811 890.92 538.407 890.92 537.871V535.591L890.848 535.507H889.504L889.444 535.447L889.528 535.159L889.6 535.087H890.848L890.92 535.015C890.92 534.711 890.92 534.391 890.92 534.055C890.92 533.719 890.912 533.475 890.896 533.323ZM899.509 533.323L900.517 532.975L900.601 533.035C900.569 533.379 900.541 533.711 900.517 534.031C900.493 534.343 900.477 534.675 900.469 535.027L900.541 535.087H902.077L902.137 535.135L902.041 535.447L901.969 535.507H900.541L900.469 535.579V537.847C900.469 538.127 900.485 538.407 900.517 538.687C900.557 538.967 900.637 539.199 900.757 539.383C900.885 539.559 901.073 539.647 901.321 539.647C901.473 539.647 901.649 539.595 901.849 539.491C902.049 539.379 902.237 539.267 902.413 539.155L902.557 539.179L902.641 539.359C902.369 539.615 902.061 539.855 901.717 540.079C901.373 540.303 901.025 540.415 900.673 540.415C900.537 540.415 900.385 540.387 900.217 540.331C900.057 540.283 899.921 540.187 899.809 540.043C899.729 539.931 899.669 539.811 899.629 539.683C899.589 539.555 899.561 539.355 899.545 539.083C899.537 538.811 899.533 538.407 899.533 537.871V535.591L899.461 535.507H898.117L898.057 535.447L898.141 535.159L898.213 535.087H899.461L899.533 535.015C899.533 534.711 899.533 534.391 899.533 534.055C899.533 533.719 899.525 533.475 899.509 533.323ZM909.742 539.023L909.898 539.143V539.275C909.634 539.555 909.342 539.819 909.022 540.067C908.71 540.307 908.374 540.427 908.014 540.427C907.734 540.427 907.53 540.303 907.402 540.055C907.282 539.807 907.222 539.535 907.222 539.239C907.222 539.023 907.226 538.779 907.234 538.507C907.242 538.227 907.25 537.963 907.258 537.715C907.266 537.459 907.27 537.259 907.27 537.115C907.27 536.811 907.246 536.535 907.198 536.287C907.15 536.031 907.05 535.831 906.898 535.687C906.754 535.535 906.534 535.459 906.238 535.459C905.91 535.459 905.602 535.539 905.314 535.699C905.026 535.851 904.766 536.011 904.534 536.179C904.534 536.835 904.53 537.495 904.522 538.159C904.514 538.815 904.51 539.467 904.51 540.115L903.646 540.379L903.574 540.259C903.614 539.467 903.65 538.675 903.682 537.883C903.714 537.091 903.734 536.299 903.742 535.507C903.742 534.899 903.742 534.371 903.742 533.923C903.742 533.467 903.662 533.131 903.502 532.915C903.446 532.843 903.318 532.783 903.118 532.735C902.918 532.679 902.738 532.635 902.578 532.603V532.387L902.638 532.339L904.534 532.135L904.606 532.219C904.582 532.731 904.566 533.275 904.558 533.851C904.558 534.419 904.558 534.979 904.558 535.531L904.654 535.627C905.006 535.411 905.386 535.207 905.794 535.015C906.202 534.815 906.626 534.715 907.066 534.715C907.154 534.715 907.278 534.743 907.438 534.799C907.598 534.855 907.734 534.939 907.846 535.051C908.03 535.219 908.122 535.499 908.122 535.891C908.13 536.275 908.134 536.707 908.134 537.187V538.075C908.134 538.195 908.13 538.339 908.122 538.507C908.122 538.675 908.134 538.839 908.158 538.999C908.182 539.159 908.23 539.295 908.302 539.407C908.382 539.511 908.502 539.563 908.662 539.563C908.894 539.563 909.102 539.499 909.286 539.371C909.478 539.243 909.63 539.127 909.742 539.023ZM914.78 536.479L911.396 537.943C911.42 538.191 911.484 538.447 911.588 538.711C911.7 538.975 911.864 539.195 912.08 539.371C912.304 539.547 912.592 539.635 912.944 539.635C913.272 539.635 913.592 539.551 913.904 539.383C914.224 539.215 914.52 539.027 914.792 538.819L914.924 538.843L915.08 539.059C914.832 539.291 914.56 539.515 914.264 539.731C913.976 539.939 913.668 540.111 913.34 540.247C913.02 540.383 912.688 540.451 912.344 540.451C911.944 540.451 911.612 540.367 911.348 540.199C911.092 540.031 910.892 539.811 910.748 539.539C910.604 539.259 910.5 538.951 910.436 538.615C910.38 538.271 910.352 537.931 910.352 537.595C910.352 537.243 910.396 536.899 910.484 536.563C910.572 536.227 910.732 535.923 910.964 535.651C911.26 535.307 911.612 535.043 912.02 534.859C912.436 534.667 912.872 534.571 913.328 534.571C913.848 534.571 914.26 534.731 914.564 535.051C914.876 535.371 915.032 535.763 915.032 536.227C915.032 536.299 915.004 536.351 914.948 536.383C914.9 536.415 914.844 536.447 914.78 536.479ZM911.9 535.555C911.668 535.803 911.516 536.063 911.444 536.335C911.38 536.607 911.348 536.891 911.348 537.187C911.348 537.219 911.348 537.255 911.348 537.295C911.356 537.327 911.364 537.363 911.372 537.403L911.42 537.451L913.844 536.491C913.884 536.475 913.92 536.443 913.952 536.395C913.984 536.347 914 536.275 914 536.179C914 536.011 913.956 535.839 913.868 535.663C913.78 535.487 913.652 535.343 913.484 535.231C913.324 535.111 913.132 535.051 912.908 535.051C912.708 535.051 912.52 535.095 912.344 535.183C912.176 535.271 912.028 535.395 911.9 535.555ZM921.655 540.091L920.815 540.379L920.635 540.295C920.643 540.143 920.651 539.919 920.659 539.623C920.675 539.327 920.687 539.003 920.695 538.651C920.711 538.291 920.723 537.943 920.731 537.607C920.739 537.263 920.743 536.971 920.743 536.731C920.743 536.331 920.719 536.003 920.671 535.747C920.623 535.483 920.499 535.351 920.299 535.351C920.171 535.351 920.031 535.395 919.879 535.483C919.735 535.563 919.575 535.659 919.399 535.771L919.195 535.507C919.363 535.387 919.543 535.263 919.735 535.135C919.927 534.999 920.119 534.887 920.311 534.799C920.503 534.703 920.671 534.655 920.815 534.655C921.119 534.655 921.331 534.735 921.451 534.895C921.571 535.055 921.647 535.247 921.679 535.471L921.775 535.543C922.111 535.335 922.475 535.139 922.867 534.955C923.267 534.771 923.659 534.679 924.043 534.679C924.219 534.679 924.387 534.703 924.547 534.751C924.715 534.799 924.855 534.891 924.967 535.027C925.047 535.123 925.103 535.299 925.135 535.555C925.167 535.803 925.187 536.083 925.195 536.395C925.203 536.699 925.207 536.979 925.207 537.235C925.207 537.835 925.207 538.307 925.207 538.651C925.215 538.995 925.255 539.239 925.327 539.383C925.407 539.519 925.559 539.587 925.783 539.587C925.919 539.587 926.075 539.535 926.251 539.431C926.427 539.327 926.591 539.219 926.743 539.107H926.899L927.007 539.359C926.735 539.631 926.423 539.879 926.071 540.103C925.727 540.319 925.411 540.427 925.123 540.427C924.795 540.427 924.567 540.323 924.439 540.115C924.319 539.907 924.259 539.659 924.259 539.371L924.319 537.319C924.319 536.719 924.243 536.247 924.091 535.903C923.947 535.559 923.663 535.387 923.239 535.387C922.967 535.387 922.695 535.467 922.423 535.627C922.151 535.779 921.907 535.943 921.691 536.119C921.675 536.551 921.659 537.015 921.643 537.511C921.627 538.007 921.619 538.475 921.619 538.915C921.619 539.083 921.623 539.263 921.631 539.455C921.639 539.639 921.647 539.851 921.655 540.091ZM931.889 536.479L928.505 537.943C928.529 538.191 928.593 538.447 928.697 538.711C928.809 538.975 928.973 539.195 929.189 539.371C929.413 539.547 929.701 539.635 930.053 539.635C930.381 539.635 930.701 539.551 931.013 539.383C931.333 539.215 931.629 539.027 931.901 538.819L932.033 538.843L932.189 539.059C931.941 539.291 931.669 539.515 931.373 539.731C931.085 539.939 930.777 540.111 930.449 540.247C930.129 540.383 929.797 540.451 929.453 540.451C929.053 540.451 928.721 540.367 928.457 540.199C928.201 540.031 928.001 539.811 927.857 539.539C927.713 539.259 927.609 538.951 927.545 538.615C927.489 538.271 927.461 537.931 927.461 537.595C927.461 537.243 927.505 536.899 927.593 536.563C927.681 536.227 927.841 535.923 928.073 535.651C928.369 535.307 928.721 535.043 929.129 534.859C929.545 534.667 929.981 534.571 930.437 534.571C930.957 534.571 931.369 534.731 931.673 535.051C931.985 535.371 932.141 535.763 932.141 536.227C932.141 536.299 932.113 536.351 932.057 536.383C932.009 536.415 931.953 536.447 931.889 536.479ZM929.009 535.555C928.777 535.803 928.625 536.063 928.553 536.335C928.489 536.607 928.457 536.891 928.457 537.187C928.457 537.219 928.457 537.255 928.457 537.295C928.465 537.327 928.473 537.363 928.481 537.403L928.529 537.451L930.953 536.491C930.993 536.475 931.029 536.443 931.061 536.395C931.093 536.347 931.109 536.275 931.109 536.179C931.109 536.011 931.065 535.839 930.977 535.663C930.889 535.487 930.761 535.343 930.593 535.231C930.433 535.111 930.241 535.051 930.017 535.051C929.817 535.051 929.629 535.095 929.453 535.183C929.285 535.271 929.137 535.395 929.009 535.555ZM937.348 534.763L937.72 535.111C937.744 535.135 937.756 535.151 937.756 535.159C937.756 535.183 937.744 535.203 937.72 535.219C937.384 535.451 937.032 535.747 936.664 536.107C936.304 536.467 935.968 536.831 935.656 537.199C935.824 537.559 936.008 537.923 936.208 538.291C936.408 538.651 936.608 538.951 936.808 539.191C937.016 539.431 937.208 539.551 937.384 539.551C937.528 539.551 937.676 539.503 937.828 539.407C937.98 539.303 938.116 539.199 938.236 539.095H938.332L938.428 539.323C938.292 539.475 938.136 539.639 937.96 539.815C937.784 539.991 937.604 540.143 937.42 540.271C937.236 540.391 937.06 540.451 936.892 540.451C936.588 540.451 936.308 540.239 936.052 539.815C935.804 539.391 935.48 538.791 935.08 538.015H934.996C934.764 538.375 934.532 538.747 934.3 539.131C934.076 539.515 933.872 539.939 933.688 540.403L933.496 540.451L933.16 540.151V540.055C933.416 539.639 933.688 539.227 933.976 538.819C934.272 538.411 934.568 538.015 934.864 537.631C934.752 537.399 934.632 537.155 934.504 536.899C934.376 536.643 934.24 536.403 934.096 536.179C933.96 535.955 933.82 535.775 933.676 535.639C933.532 535.495 933.388 535.423 933.244 535.423C933.116 535.423 932.984 535.455 932.848 535.519C932.712 535.583 932.588 535.651 932.476 535.723L932.308 535.507C932.452 535.395 932.608 535.283 932.776 535.171C932.944 535.051 933.112 534.951 933.28 534.871C933.448 534.783 933.596 534.739 933.724 534.739C933.828 534.739 933.94 534.755 934.06 534.787C934.188 534.819 934.292 534.879 934.372 534.967C934.46 535.055 934.564 535.203 934.684 535.411C934.812 535.611 934.944 535.835 935.08 536.083C935.224 536.323 935.352 536.555 935.464 536.779L935.536 536.791C935.68 536.599 935.848 536.387 936.04 536.155C936.232 535.915 936.428 535.675 936.628 535.435C936.836 535.187 937.028 534.963 937.204 534.763C937.212 534.747 937.236 534.739 937.276 534.739C937.308 534.739 937.332 534.747 937.348 534.763ZM939.763 533.323L940.771 532.975L940.855 533.035C940.823 533.379 940.795 533.711 940.771 534.031C940.747 534.343 940.731 534.675 940.723 535.027L940.795 535.087H942.331L942.391 535.135L942.295 535.447L942.223 535.507H940.795L940.723 535.579V537.847C940.723 538.127 940.739 538.407 940.771 538.687C940.811 538.967 940.891 539.199 941.011 539.383C941.139 539.559 941.327 539.647 941.575 539.647C941.727 539.647 941.903 539.595 942.103 539.491C942.303 539.379 942.491 539.267 942.667 539.155L942.811 539.179L942.895 539.359C942.623 539.615 942.315 539.855 941.971 540.079C941.627 540.303 941.279 540.415 940.927 540.415C940.791 540.415 940.639 540.387 940.471 540.331C940.311 540.283 940.175 540.187 940.063 540.043C939.983 539.931 939.923 539.811 939.883 539.683C939.843 539.555 939.815 539.355 939.799 539.083C939.791 538.811 939.787 538.407 939.787 537.871V535.591L939.715 535.507H938.371L938.311 535.447L938.395 535.159L938.467 535.087H939.715L939.787 535.015C939.787 534.711 939.787 534.391 939.787 534.055C939.787 533.719 939.779 533.475 939.763 533.323ZM951.196 539.683C950.884 539.859 950.556 540.031 950.212 540.199C949.876 540.359 949.52 540.439 949.144 540.439C948.816 540.439 948.52 540.343 948.256 540.151C947.992 539.951 947.784 539.675 947.632 539.323C947.48 538.971 947.404 538.563 947.404 538.099C947.404 537.387 947.524 536.779 947.764 536.275C948.012 535.771 948.344 535.387 948.76 535.123C949.176 534.859 949.64 534.727 950.152 534.727C950.4 534.727 950.644 534.759 950.884 534.823C951.132 534.879 951.356 534.983 951.556 535.135L952.168 534.787L952.336 534.859C952.32 535.131 952.304 535.403 952.288 535.675C952.28 535.939 952.268 536.235 952.252 536.563C952.244 536.891 952.236 537.279 952.228 537.727C952.228 538.167 952.228 538.699 952.228 539.323C952.228 539.555 952.212 539.863 952.18 540.247C952.156 540.623 952.084 540.987 951.964 541.339C951.868 541.603 951.728 541.831 951.544 542.023C951.36 542.223 951.208 542.367 951.088 542.455C950.784 542.687 950.476 542.851 950.164 542.947C949.852 543.051 949.512 543.103 949.144 543.103C948.88 543.103 948.612 543.059 948.34 542.971C948.068 542.883 947.784 542.703 947.488 542.431L948.076 541.687H948.244C948.316 541.831 948.42 541.971 948.556 542.107C948.692 542.251 948.836 542.371 948.988 542.467C949.148 542.563 949.3 542.611 949.444 542.611C949.868 542.611 950.212 542.483 950.476 542.227C950.748 541.971 950.948 541.627 951.076 541.195C951.212 540.763 951.288 540.287 951.304 539.767L951.196 539.683ZM951.304 539.119V535.951C951.288 535.671 951.168 535.467 950.944 535.339C950.728 535.203 950.492 535.135 950.236 535.135C949.884 535.135 949.592 535.227 949.36 535.411C949.128 535.587 948.944 535.819 948.808 536.107C948.672 536.387 948.576 536.683 948.52 536.995C948.464 537.307 948.436 537.599 948.436 537.871C948.436 538.231 948.508 538.547 948.652 538.819C948.796 539.091 948.972 539.303 949.18 539.455C949.396 539.607 949.604 539.683 949.804 539.683C949.988 539.683 950.176 539.651 950.368 539.587C950.568 539.523 950.752 539.447 950.92 539.359C951.088 539.271 951.216 539.191 951.304 539.119ZM958.057 536.479L954.673 537.943C954.697 538.191 954.761 538.447 954.865 538.711C954.977 538.975 955.141 539.195 955.357 539.371C955.581 539.547 955.869 539.635 956.221 539.635C956.549 539.635 956.869 539.551 957.181 539.383C957.501 539.215 957.797 539.027 958.069 538.819L958.201 538.843L958.357 539.059C958.109 539.291 957.837 539.515 957.541 539.731C957.253 539.939 956.945 540.111 956.617 540.247C956.297 540.383 955.965 540.451 955.621 540.451C955.221 540.451 954.889 540.367 954.625 540.199C954.369 540.031 954.169 539.811 954.025 539.539C953.881 539.259 953.777 538.951 953.713 538.615C953.657 538.271 953.629 537.931 953.629 537.595C953.629 537.243 953.673 536.899 953.761 536.563C953.849 536.227 954.009 535.923 954.241 535.651C954.537 535.307 954.889 535.043 955.297 534.859C955.713 534.667 956.149 534.571 956.605 534.571C957.125 534.571 957.537 534.731 957.841 535.051C958.153 535.371 958.309 535.763 958.309 536.227C958.309 536.299 958.281 536.351 958.225 536.383C958.177 536.415 958.121 536.447 958.057 536.479ZM955.177 535.555C954.945 535.803 954.793 536.063 954.721 536.335C954.657 536.607 954.625 536.891 954.625 537.187C954.625 537.219 954.625 537.255 954.625 537.295C954.633 537.327 954.641 537.363 954.649 537.403L954.697 537.451L957.121 536.491C957.161 536.475 957.197 536.443 957.229 536.395C957.261 536.347 957.277 536.275 957.277 536.179C957.277 536.011 957.233 535.839 957.145 535.663C957.057 535.487 956.929 535.343 956.761 535.231C956.601 535.111 956.409 535.051 956.185 535.051C955.985 535.051 955.797 535.095 955.621 535.183C955.453 535.271 955.305 535.395 955.177 535.555ZM960.936 540.091L960.096 540.379L959.916 540.295C959.924 540.143 959.932 539.919 959.94 539.623C959.956 539.327 959.968 539.003 959.976 538.651C959.992 538.291 960.004 537.943 960.012 537.607C960.02 537.263 960.024 536.971 960.024 536.731C960.024 536.331 960 536.003 959.952 535.747C959.904 535.483 959.78 535.351 959.58 535.351C959.452 535.351 959.312 535.395 959.16 535.483C959.016 535.563 958.856 535.659 958.68 535.771L958.476 535.507C958.644 535.387 958.824 535.263 959.016 535.135C959.208 534.999 959.4 534.887 959.592 534.799C959.784 534.703 959.952 534.655 960.096 534.655C960.4 534.655 960.612 534.735 960.732 534.895C960.852 535.055 960.928 535.247 960.96 535.471L961.056 535.543C961.392 535.335 961.756 535.139 962.148 534.955C962.548 534.771 962.94 534.679 963.324 534.679C963.5 534.679 963.668 534.703 963.828 534.751C963.996 534.799 964.136 534.891 964.248 535.027C964.328 535.123 964.384 535.299 964.416 535.555C964.448 535.803 964.468 536.083 964.476 536.395C964.484 536.699 964.488 536.979 964.488 537.235C964.488 537.835 964.488 538.307 964.488 538.651C964.496 538.995 964.536 539.239 964.608 539.383C964.688 539.519 964.84 539.587 965.064 539.587C965.2 539.587 965.356 539.535 965.532 539.431C965.708 539.327 965.872 539.219 966.024 539.107H966.18L966.288 539.359C966.016 539.631 965.704 539.879 965.352 540.103C965.008 540.319 964.692 540.427 964.404 540.427C964.076 540.427 963.848 540.323 963.72 540.115C963.6 539.907 963.54 539.659 963.54 539.371L963.6 537.319C963.6 536.719 963.524 536.247 963.372 535.903C963.228 535.559 962.944 535.387 962.52 535.387C962.248 535.387 961.976 535.467 961.704 535.627C961.432 535.779 961.188 535.943 960.972 536.119C960.956 536.551 960.94 537.015 960.924 537.511C960.908 538.007 960.9 538.475 960.9 538.915C960.9 539.083 960.904 539.263 960.912 539.455C960.92 539.639 960.928 539.851 960.936 540.091ZM971.171 536.479L967.787 537.943C967.811 538.191 967.875 538.447 967.979 538.711C968.091 538.975 968.255 539.195 968.471 539.371C968.695 539.547 968.983 539.635 969.335 539.635C969.663 539.635 969.983 539.551 970.295 539.383C970.615 539.215 970.911 539.027 971.183 538.819L971.315 538.843L971.471 539.059C971.223 539.291 970.951 539.515 970.655 539.731C970.367 539.939 970.059 540.111 969.731 540.247C969.411 540.383 969.079 540.451 968.735 540.451C968.335 540.451 968.003 540.367 967.739 540.199C967.483 540.031 967.283 539.811 967.139 539.539C966.995 539.259 966.891 538.951 966.827 538.615C966.771 538.271 966.743 537.931 966.743 537.595C966.743 537.243 966.787 536.899 966.875 536.563C966.963 536.227 967.123 535.923 967.355 535.651C967.651 535.307 968.003 535.043 968.411 534.859C968.827 534.667 969.263 534.571 969.719 534.571C970.239 534.571 970.651 534.731 970.955 535.051C971.267 535.371 971.423 535.763 971.423 536.227C971.423 536.299 971.395 536.351 971.339 536.383C971.291 536.415 971.235 536.447 971.171 536.479ZM968.291 535.555C968.059 535.803 967.907 536.063 967.835 536.335C967.771 536.607 967.739 536.891 967.739 537.187C967.739 537.219 967.739 537.255 967.739 537.295C967.747 537.327 967.755 537.363 967.763 537.403L967.811 537.451L970.235 536.491C970.275 536.475 970.311 536.443 970.343 536.395C970.375 536.347 970.391 536.275 970.391 536.179C970.391 536.011 970.347 535.839 970.259 535.663C970.171 535.487 970.043 535.343 969.875 535.231C969.715 535.111 969.523 535.051 969.299 535.051C969.099 535.051 968.911 535.095 968.735 535.183C968.567 535.271 968.419 535.395 968.291 535.555ZM975.933 536.239L975.789 536.179C975.757 536.011 975.693 535.855 975.597 535.711C975.501 535.559 975.353 535.483 975.153 535.483C974.905 535.483 974.705 535.567 974.553 535.735C974.401 535.903 974.293 536.067 974.229 536.227C974.173 536.355 974.141 536.539 974.133 536.779C974.125 537.019 974.125 537.275 974.133 537.547C974.141 537.811 974.145 538.051 974.145 538.267C974.145 538.867 974.157 539.475 974.181 540.091L973.341 540.343L973.161 540.235C973.201 539.811 973.233 539.351 973.257 538.855C973.289 538.359 973.305 537.871 973.305 537.391C973.305 537.079 973.301 536.767 973.293 536.455C973.285 536.143 973.245 535.883 973.173 535.675C973.101 535.467 972.973 535.363 972.789 535.363C972.653 535.363 972.501 535.403 972.333 535.483C972.165 535.563 972.005 535.647 971.853 535.735L971.709 535.531C971.869 535.403 972.041 535.271 972.225 535.135C972.417 534.999 972.609 534.883 972.801 534.787C972.993 534.683 973.169 534.631 973.329 534.631C973.601 534.631 973.805 534.711 973.941 534.871C974.077 535.031 974.161 535.239 974.193 535.495L974.313 535.543C974.433 535.431 974.565 535.311 974.709 535.183C974.861 535.047 975.017 534.935 975.177 534.847C975.337 534.751 975.489 534.703 975.633 534.703C976.201 534.703 976.517 535.019 976.581 535.651L975.933 536.239ZM981.322 535.135L981.958 534.763L982.018 534.823C981.97 535.695 981.946 536.567 981.946 537.439C981.946 537.623 981.938 537.843 981.922 538.099C981.914 538.355 981.918 538.603 981.934 538.843C981.95 539.083 981.994 539.283 982.066 539.443C982.138 539.603 982.254 539.683 982.414 539.683C982.502 539.683 982.622 539.659 982.774 539.611C982.926 539.563 983.066 539.515 983.194 539.467L983.278 539.755C983.118 539.851 982.946 539.955 982.762 540.067C982.578 540.171 982.398 540.259 982.222 540.331C982.046 540.411 981.894 540.451 981.766 540.451C981.542 540.451 981.382 540.383 981.286 540.247C981.19 540.111 981.122 539.943 981.082 539.743L980.902 539.695C980.606 539.887 980.294 540.063 979.966 540.223C979.638 540.375 979.298 540.451 978.946 540.451C978.61 540.451 978.33 540.379 978.106 540.235C977.882 540.091 977.702 539.903 977.566 539.671C977.43 539.439 977.33 539.187 977.266 538.915C977.21 538.635 977.182 538.359 977.182 538.087C977.182 537.663 977.234 537.251 977.338 536.851C977.45 536.451 977.618 536.091 977.842 535.771C978.074 535.443 978.37 535.187 978.73 535.003C979.09 534.811 979.526 534.715 980.038 534.715C980.23 534.715 980.442 534.751 980.674 534.823C980.914 534.895 981.13 534.999 981.322 535.135ZM981.058 539.119V536.359C981.058 536.199 981.05 536.047 981.034 535.903C981.018 535.759 980.962 535.635 980.866 535.531C980.762 535.419 980.638 535.327 980.494 535.255C980.35 535.175 980.202 535.135 980.05 535.135C979.61 535.135 979.23 535.287 978.91 535.591C978.774 535.719 978.634 535.955 978.49 536.299C978.354 536.643 978.278 537.119 978.262 537.727C978.254 537.975 978.274 538.227 978.322 538.483C978.37 538.731 978.462 538.959 978.598 539.167C978.726 539.367 978.898 539.499 979.114 539.563C979.338 539.627 979.562 539.659 979.786 539.659C980.018 539.659 980.242 539.603 980.458 539.491C980.682 539.379 980.882 539.255 981.058 539.119ZM984.728 533.323L985.736 532.975L985.82 533.035C985.788 533.379 985.76 533.711 985.736 534.031C985.712 534.343 985.696 534.675 985.688 535.027L985.76 535.087H987.296L987.356 535.135L987.26 535.447L987.188 535.507H985.76L985.688 535.579V537.847C985.688 538.127 985.704 538.407 985.736 538.687C985.776 538.967 985.856 539.199 985.976 539.383C986.104 539.559 986.292 539.647 986.54 539.647C986.692 539.647 986.868 539.595 987.068 539.491C987.268 539.379 987.456 539.267 987.632 539.155L987.776 539.179L987.86 539.359C987.588 539.615 987.28 539.855 986.936 540.079C986.592 540.303 986.244 540.415 985.892 540.415C985.756 540.415 985.604 540.387 985.436 540.331C985.276 540.283 985.14 540.187 985.028 540.043C984.948 539.931 984.888 539.811 984.848 539.683C984.808 539.555 984.78 539.355 984.764 539.083C984.756 538.811 984.752 538.407 984.752 537.871V535.591L984.68 535.507H983.336L983.276 535.447L983.36 535.159L983.432 535.087H984.68L984.752 535.015C984.752 534.711 984.752 534.391 984.752 534.055C984.752 533.719 984.744 533.475 984.728 533.323ZM990.365 532.807C990.357 533.007 990.281 533.171 990.137 533.299C990.001 533.419 989.837 533.479 989.645 533.479C989.453 533.479 989.289 533.411 989.153 533.275C989.017 533.139 988.949 532.975 988.949 532.783C988.949 532.575 989.033 532.411 989.201 532.291C989.369 532.171 989.541 532.111 989.717 532.111C989.925 532.111 990.085 532.183 990.197 532.327C990.309 532.463 990.365 532.623 990.365 532.807ZM990.197 535.603L990.101 538.123C990.101 538.563 990.137 538.907 990.209 539.155C990.281 539.403 990.421 539.527 990.629 539.527C990.861 539.527 991.061 539.475 991.229 539.371C991.405 539.259 991.573 539.131 991.733 538.987L991.889 539.107V539.239C991.753 539.415 991.593 539.595 991.409 539.779C991.233 539.955 991.041 540.103 990.833 540.223C990.633 540.343 990.421 540.403 990.197 540.403C990.029 540.403 989.869 540.371 989.717 540.307C989.573 540.251 989.457 540.127 989.369 539.935C989.281 539.743 989.237 539.451 989.237 539.059L989.309 536.407C989.309 536.095 989.277 535.847 989.213 535.663C989.157 535.479 989.049 535.387 988.889 535.387C988.761 535.387 988.605 535.431 988.421 535.519C988.237 535.599 988.073 535.683 987.929 535.771L987.773 535.555C988.045 535.339 988.333 535.135 988.637 534.943C988.949 534.751 989.221 534.655 989.453 534.655C989.725 534.655 989.917 534.747 990.029 534.931C990.141 535.115 990.197 535.339 990.197 535.603ZM994.676 540.475C994.124 540.475 993.68 540.355 993.344 540.115C993.016 539.867 992.776 539.551 992.624 539.167C992.472 538.783 992.38 538.379 992.348 537.955C992.348 537.539 992.384 537.123 992.456 536.707C992.536 536.291 992.72 535.927 993.008 535.615C993.288 535.303 993.628 535.079 994.028 534.943C994.436 534.799 994.848 534.727 995.264 534.727C995.856 534.727 996.324 534.859 996.668 535.123C997.012 535.387 997.26 535.727 997.412 536.143C997.564 536.559 997.64 536.991 997.64 537.439C997.64 537.831 997.588 538.215 997.484 538.591C997.388 538.967 997.208 539.303 996.944 539.599C996.664 539.919 996.32 540.147 995.912 540.283C995.512 540.411 995.1 540.475 994.676 540.475ZM993.476 536.515C993.444 536.667 993.42 536.819 993.404 536.971C993.388 537.123 993.38 537.279 993.38 537.439C993.38 537.687 993.404 537.959 993.452 538.255C993.5 538.551 993.58 538.831 993.692 539.095C993.812 539.351 993.976 539.563 994.184 539.731C994.4 539.899 994.672 539.983 995 539.983C995.328 539.983 995.592 539.911 995.792 539.767C996 539.623 996.16 539.435 996.272 539.203C996.384 538.971 996.46 538.719 996.5 538.447C996.548 538.175 996.572 537.915 996.572 537.667C996.572 537.419 996.552 537.155 996.512 536.875C996.472 536.587 996.396 536.315 996.284 536.059C996.18 535.803 996.02 535.595 995.804 535.435C995.596 535.275 995.324 535.195 994.988 535.195C994.668 535.195 994.364 535.303 994.076 535.519C993.788 535.735 993.588 536.067 993.476 536.515ZM1000.56 540.091L999.717 540.379L999.537 540.295C999.545 540.143 999.553 539.919 999.561 539.623C999.577 539.327 999.589 539.003 999.597 538.651C999.613 538.291 999.625 537.943 999.633 537.607C999.641 537.263 999.645 536.971 999.645 536.731C999.645 536.331 999.621 536.003 999.573 535.747C999.525 535.483 999.401 535.351 999.201 535.351C999.073 535.351 998.933 535.395 998.781 535.483C998.637 535.563 998.477 535.659 998.301 535.771L998.097 535.507C998.265 535.387 998.445 535.263 998.637 535.135C998.829 534.999 999.021 534.887 999.213 534.799C999.405 534.703 999.573 534.655 999.717 534.655C1000.02 534.655 1000.23 534.735 1000.35 534.895C1000.47 535.055 1000.55 535.247 1000.58 535.471L1000.68 535.543C1001.01 535.335 1001.38 535.139 1001.77 534.955C1002.17 534.771 1002.56 534.679 1002.95 534.679C1003.12 534.679 1003.29 534.703 1003.45 534.751C1003.62 534.799 1003.76 534.891 1003.87 535.027C1003.95 535.123 1004.01 535.299 1004.04 535.555C1004.07 535.803 1004.09 536.083 1004.1 536.395C1004.11 536.699 1004.11 536.979 1004.11 537.235C1004.11 537.835 1004.11 538.307 1004.11 538.651C1004.12 538.995 1004.16 539.239 1004.23 539.383C1004.31 539.519 1004.46 539.587 1004.69 539.587C1004.82 539.587 1004.98 539.535 1005.15 539.431C1005.33 539.327 1005.49 539.219 1005.65 539.107H1005.8L1005.91 539.359C1005.64 539.631 1005.33 539.879 1004.97 540.103C1004.63 540.319 1004.31 540.427 1004.03 540.427C1003.7 540.427 1003.47 540.323 1003.34 540.115C1003.22 539.907 1003.16 539.659 1003.16 539.371L1003.22 537.319C1003.22 536.719 1003.15 536.247 1002.99 535.903C1002.85 535.559 1002.57 535.387 1002.14 535.387C1001.87 535.387 1001.6 535.467 1001.33 535.627C1001.05 535.779 1000.81 535.943 1000.59 536.119C1000.58 536.551 1000.56 537.015 1000.55 537.511C1000.53 538.007 1000.52 538.475 1000.52 538.915C1000.52 539.083 1000.53 539.263 1000.53 539.455C1000.54 539.639 1000.55 539.851 1000.56 540.091ZM1012.69 540.475C1012.14 540.475 1011.69 540.355 1011.36 540.115C1011.03 539.867 1010.79 539.551 1010.64 539.167C1010.48 538.783 1010.39 538.379 1010.36 537.955C1010.36 537.539 1010.4 537.123 1010.47 536.707C1010.55 536.291 1010.73 535.927 1011.02 535.615C1011.3 535.303 1011.64 535.079 1012.04 534.943C1012.45 534.799 1012.86 534.727 1013.28 534.727C1013.87 534.727 1014.34 534.859 1014.68 535.123C1015.02 535.387 1015.27 535.727 1015.42 536.143C1015.58 536.559 1015.65 536.991 1015.65 537.439C1015.65 537.831 1015.6 538.215 1015.5 538.591C1015.4 538.967 1015.22 539.303 1014.96 539.599C1014.68 539.919 1014.33 540.147 1013.92 540.283C1013.52 540.411 1013.11 540.475 1012.69 540.475ZM1011.49 536.515C1011.46 536.667 1011.43 536.819 1011.42 536.971C1011.4 537.123 1011.39 537.279 1011.39 537.439C1011.39 537.687 1011.42 537.959 1011.46 538.255C1011.51 538.551 1011.59 538.831 1011.7 539.095C1011.82 539.351 1011.99 539.563 1012.2 539.731C1012.41 539.899 1012.68 539.983 1013.01 539.983C1013.34 539.983 1013.6 539.911 1013.8 539.767C1014.01 539.623 1014.17 539.435 1014.28 539.203C1014.4 538.971 1014.47 538.719 1014.51 538.447C1014.56 538.175 1014.58 537.915 1014.58 537.667C1014.58 537.419 1014.56 537.155 1014.52 536.875C1014.48 536.587 1014.41 536.315 1014.3 536.059C1014.19 535.803 1014.03 535.595 1013.82 535.435C1013.61 535.275 1013.34 535.195 1013 535.195C1012.68 535.195 1012.38 535.303 1012.09 535.519C1011.8 535.735 1011.6 536.067 1011.49 536.515ZM1016.35 535.099H1017.61L1017.68 535.027C1017.68 534.819 1017.69 534.579 1017.72 534.307C1017.74 534.027 1017.8 533.779 1017.9 533.563C1018.08 533.139 1018.34 532.819 1018.67 532.603C1019 532.387 1019.36 532.279 1019.73 532.279C1020.06 532.279 1020.31 532.347 1020.48 532.483C1020.65 532.619 1020.77 532.767 1020.85 532.927L1020.15 533.575L1020.01 533.527C1019.99 533.439 1019.97 533.335 1019.93 533.215C1019.89 533.095 1019.83 532.991 1019.73 532.903C1019.65 532.807 1019.51 532.759 1019.31 532.759C1019.15 532.759 1019.01 532.863 1018.89 533.071C1018.79 533.279 1018.71 533.555 1018.67 533.899C1018.62 534.243 1018.59 534.619 1018.59 535.027L1018.64 535.099H1020.13L1020.19 535.183L1020.11 535.447L1020.02 535.519H1018.64L1018.57 535.591V536.923C1018.57 537.483 1018.58 538.043 1018.59 538.603C1018.62 539.155 1018.65 539.675 1018.69 540.163L1017.74 540.451L1017.54 540.319C1017.58 539.727 1017.61 539.147 1017.65 538.579C1017.68 538.011 1017.69 537.455 1017.69 536.911V535.615L1017.62 535.519H1016.28L1016.22 535.435L1016.27 535.171L1016.35 535.099ZM1027.64 538.963H1027.77L1027.91 539.107C1027.77 539.315 1027.61 539.523 1027.43 539.731C1027.24 539.939 1027.04 540.111 1026.81 540.247C1026.59 540.375 1026.35 540.439 1026.08 540.439C1025.88 540.439 1025.71 540.395 1025.55 540.307C1025.41 540.211 1025.3 540.043 1025.22 539.803C1025.14 539.555 1025.1 539.203 1025.1 538.747L1025.18 534.211C1025.18 534.011 1025.18 533.799 1025.17 533.575C1025.17 533.343 1025.15 533.155 1025.12 533.011C1025.1 532.883 1025.03 532.799 1024.91 532.759C1024.79 532.711 1024.65 532.683 1024.5 532.675C1024.35 532.667 1024.21 532.659 1024.08 532.651V532.375L1024.15 532.315L1026.13 532.075L1026.2 532.159C1026.18 532.999 1026.14 533.839 1026.09 534.679C1026.05 535.519 1026.03 536.359 1026.03 537.199C1026.03 537.591 1026.03 537.963 1026.02 538.315C1026.02 538.667 1026.06 538.955 1026.13 539.179C1026.21 539.395 1026.37 539.511 1026.61 539.527C1026.81 539.527 1026.99 539.467 1027.16 539.347C1027.33 539.219 1027.49 539.091 1027.64 538.963ZM1030.26 532.807C1030.25 533.007 1030.17 533.171 1030.03 533.299C1029.89 533.419 1029.73 533.479 1029.54 533.479C1029.34 533.479 1029.18 533.411 1029.04 533.275C1028.91 533.139 1028.84 532.975 1028.84 532.783C1028.84 532.575 1028.92 532.411 1029.09 532.291C1029.26 532.171 1029.43 532.111 1029.61 532.111C1029.82 532.111 1029.98 532.183 1030.09 532.327C1030.2 532.463 1030.26 532.623 1030.26 532.807ZM1030.09 535.603L1029.99 538.123C1029.99 538.563 1030.03 538.907 1030.1 539.155C1030.17 539.403 1030.31 539.527 1030.52 539.527C1030.75 539.527 1030.95 539.475 1031.12 539.371C1031.3 539.259 1031.46 539.131 1031.62 538.987L1031.78 539.107V539.239C1031.64 539.415 1031.48 539.595 1031.3 539.779C1031.12 539.955 1030.93 540.103 1030.72 540.223C1030.52 540.343 1030.31 540.403 1030.09 540.403C1029.92 540.403 1029.76 540.371 1029.61 540.307C1029.46 540.251 1029.35 540.127 1029.26 539.935C1029.17 539.743 1029.13 539.451 1029.13 539.059L1029.2 536.407C1029.2 536.095 1029.17 535.847 1029.1 535.663C1029.05 535.479 1028.94 535.387 1028.78 535.387C1028.65 535.387 1028.5 535.431 1028.31 535.519C1028.13 535.599 1027.96 535.683 1027.82 535.771L1027.66 535.555C1027.94 535.339 1028.22 535.135 1028.53 534.943C1028.84 534.751 1029.11 534.655 1029.34 534.655C1029.62 534.655 1029.81 534.747 1029.92 534.931C1030.03 535.115 1030.09 535.339 1030.09 535.603ZM1036.62 534.787C1036.64 534.771 1036.67 534.763 1036.71 534.763C1036.83 534.763 1036.95 534.875 1037.07 535.099C1037.2 535.323 1037.27 535.611 1037.27 535.963C1037.27 536.291 1037.2 536.607 1037.06 536.911C1036.93 537.207 1036.77 537.491 1036.61 537.763C1036.33 538.195 1036.03 538.603 1035.71 538.987C1035.39 539.371 1035.05 539.743 1034.7 540.103C1034.63 540.167 1034.57 540.235 1034.49 540.307C1034.42 540.379 1034.37 540.423 1034.34 540.439H1034.05L1033.22 537.343C1033.13 536.999 1033.04 536.683 1032.93 536.395C1032.84 536.099 1032.74 535.863 1032.63 535.687C1032.53 535.503 1032.41 535.411 1032.29 535.411C1032.16 535.411 1032.03 535.435 1031.91 535.483C1031.79 535.523 1031.67 535.583 1031.53 535.663L1031.42 535.375C1031.64 535.223 1031.88 535.071 1032.15 534.919C1032.43 534.759 1032.69 534.679 1032.92 534.679C1033.13 534.679 1033.29 534.767 1033.41 534.943C1033.53 535.111 1033.64 535.355 1033.73 535.675C1033.82 535.987 1033.93 536.359 1034.04 536.791C1034.09 536.967 1034.14 537.199 1034.21 537.487C1034.27 537.767 1034.34 538.047 1034.41 538.327C1034.49 538.607 1034.57 538.843 1034.64 539.035C1034.72 539.227 1034.79 539.323 1034.85 539.323C1034.89 539.323 1034.93 539.291 1034.99 539.227C1035.04 539.163 1035.09 539.107 1035.14 539.059C1035.34 538.819 1035.54 538.563 1035.73 538.291C1035.93 538.011 1036.09 537.723 1036.22 537.427C1036.36 537.131 1036.43 536.843 1036.43 536.563C1036.43 536.371 1036.38 536.171 1036.28 535.963C1036.19 535.755 1036.09 535.555 1035.98 535.363C1035.97 535.355 1035.97 535.335 1035.97 535.303C1035.97 535.271 1035.99 535.239 1036.02 535.207L1036.62 534.787ZM1040.05 532.807C1040.04 533.007 1039.97 533.171 1039.82 533.299C1039.69 533.419 1039.52 533.479 1039.33 533.479C1039.14 533.479 1038.98 533.411 1038.84 533.275C1038.7 533.139 1038.64 532.975 1038.64 532.783C1038.64 532.575 1038.72 532.411 1038.89 532.291C1039.06 532.171 1039.23 532.111 1039.4 532.111C1039.61 532.111 1039.77 532.183 1039.88 532.327C1040 532.463 1040.05 532.623 1040.05 532.807ZM1039.88 535.603L1039.79 538.123C1039.79 538.563 1039.82 538.907 1039.9 539.155C1039.97 539.403 1040.11 539.527 1040.32 539.527C1040.55 539.527 1040.75 539.475 1040.92 539.371C1041.09 539.259 1041.26 539.131 1041.42 538.987L1041.58 539.107V539.239C1041.44 539.415 1041.28 539.595 1041.1 539.779C1040.92 539.955 1040.73 540.103 1040.52 540.223C1040.32 540.343 1040.11 540.403 1039.88 540.403C1039.72 540.403 1039.56 540.371 1039.4 540.307C1039.26 540.251 1039.14 540.127 1039.06 539.935C1038.97 539.743 1038.92 539.451 1038.92 539.059L1039 536.407C1039 536.095 1038.96 535.847 1038.9 535.663C1038.84 535.479 1038.74 535.387 1038.58 535.387C1038.45 535.387 1038.29 535.431 1038.11 535.519C1037.92 535.599 1037.76 535.683 1037.62 535.771L1037.46 535.555C1037.73 535.339 1038.02 535.135 1038.32 534.943C1038.64 534.751 1038.91 534.655 1039.14 534.655C1039.41 534.655 1039.6 534.747 1039.72 534.931C1039.83 535.115 1039.88 535.339 1039.88 535.603ZM1043.8 540.091L1042.96 540.379L1042.78 540.295C1042.79 540.143 1042.8 539.919 1042.8 539.623C1042.82 539.327 1042.83 539.003 1042.84 538.651C1042.86 538.291 1042.87 537.943 1042.88 537.607C1042.88 537.263 1042.89 536.971 1042.89 536.731C1042.89 536.331 1042.86 536.003 1042.82 535.747C1042.77 535.483 1042.64 535.351 1042.44 535.351C1042.32 535.351 1042.18 535.395 1042.02 535.483C1041.88 535.563 1041.72 535.659 1041.54 535.771L1041.34 535.507C1041.51 535.387 1041.69 535.263 1041.88 535.135C1042.07 534.999 1042.26 534.887 1042.46 534.799C1042.65 534.703 1042.82 534.655 1042.96 534.655C1043.26 534.655 1043.48 534.735 1043.6 534.895C1043.72 535.055 1043.79 535.247 1043.82 535.471L1043.92 535.543C1044.26 535.335 1044.62 535.139 1045.01 534.955C1045.41 534.771 1045.8 534.679 1046.19 534.679C1046.36 534.679 1046.53 534.703 1046.69 534.751C1046.86 534.799 1047 534.891 1047.11 535.027C1047.19 535.123 1047.25 535.299 1047.28 535.555C1047.31 535.803 1047.33 536.083 1047.34 536.395C1047.35 536.699 1047.35 536.979 1047.35 537.235C1047.35 537.835 1047.35 538.307 1047.35 538.651C1047.36 538.995 1047.4 539.239 1047.47 539.383C1047.55 539.519 1047.7 539.587 1047.93 539.587C1048.06 539.587 1048.22 539.535 1048.4 539.431C1048.57 539.327 1048.74 539.219 1048.89 539.107H1049.04L1049.15 539.359C1048.88 539.631 1048.57 539.879 1048.22 540.103C1047.87 540.319 1047.56 540.427 1047.27 540.427C1046.94 540.427 1046.71 540.323 1046.58 540.115C1046.46 539.907 1046.4 539.659 1046.4 539.371L1046.46 537.319C1046.46 536.719 1046.39 536.247 1046.24 535.903C1046.09 535.559 1045.81 535.387 1045.38 535.387C1045.11 535.387 1044.84 535.467 1044.57 535.627C1044.3 535.779 1044.05 535.943 1043.84 536.119C1043.82 536.551 1043.8 537.015 1043.79 537.511C1043.77 538.007 1043.76 538.475 1043.76 538.915C1043.76 539.083 1043.77 539.263 1043.78 539.455C1043.78 539.639 1043.79 539.851 1043.8 540.091ZM1053.3 539.683C1052.99 539.859 1052.66 540.031 1052.32 540.199C1051.98 540.359 1051.63 540.439 1051.25 540.439C1050.92 540.439 1050.63 540.343 1050.36 540.151C1050.1 539.951 1049.89 539.675 1049.74 539.323C1049.59 538.971 1049.51 538.563 1049.51 538.099C1049.51 537.387 1049.63 536.779 1049.87 536.275C1050.12 535.771 1050.45 535.387 1050.87 535.123C1051.28 534.859 1051.75 534.727 1052.26 534.727C1052.51 534.727 1052.75 534.759 1052.99 534.823C1053.24 534.879 1053.46 534.983 1053.66 535.135L1054.27 534.787L1054.44 534.859C1054.43 535.131 1054.41 535.403 1054.39 535.675C1054.39 535.939 1054.37 536.235 1054.36 536.563C1054.35 536.891 1054.34 537.279 1054.33 537.727C1054.33 538.167 1054.33 538.699 1054.33 539.323C1054.33 539.555 1054.32 539.863 1054.29 540.247C1054.26 540.623 1054.19 540.987 1054.07 541.339C1053.97 541.603 1053.83 541.831 1053.65 542.023C1053.47 542.223 1053.31 542.367 1053.19 542.455C1052.89 542.687 1052.58 542.851 1052.27 542.947C1051.96 543.051 1051.62 543.103 1051.25 543.103C1050.99 543.103 1050.72 543.059 1050.45 542.971C1050.17 542.883 1049.89 542.703 1049.59 542.431L1050.18 541.687H1050.35C1050.42 541.831 1050.53 541.971 1050.66 542.107C1050.8 542.251 1050.94 542.371 1051.09 542.467C1051.25 542.563 1051.41 542.611 1051.55 542.611C1051.97 542.611 1052.32 542.483 1052.58 542.227C1052.85 541.971 1053.05 541.627 1053.18 541.195C1053.32 540.763 1053.39 540.287 1053.41 539.767L1053.3 539.683ZM1053.41 539.119V535.951C1053.39 535.671 1053.27 535.467 1053.05 535.339C1052.83 535.203 1052.6 535.135 1052.34 535.135C1051.99 535.135 1051.7 535.227 1051.47 535.411C1051.23 535.587 1051.05 535.819 1050.91 536.107C1050.78 536.387 1050.68 536.683 1050.63 536.995C1050.57 537.307 1050.54 537.599 1050.54 537.871C1050.54 538.231 1050.61 538.547 1050.76 538.819C1050.9 539.091 1051.08 539.303 1051.29 539.455C1051.5 539.607 1051.71 539.683 1051.91 539.683C1052.09 539.683 1052.28 539.651 1052.47 539.587C1052.67 539.523 1052.86 539.447 1053.03 539.359C1053.19 539.271 1053.32 539.191 1053.41 539.119Z" fill="#DDDCDC"/>
<path d="M183.284 466.155H77.3393C83.1663 430.134 83.1663 373.983 83.1663 333.725C83.1663 293.995 83.1663 243.142 77.3393 206.591L177.457 201.294V270.688H180.105C186.992 228.84 211.359 193.878 261.153 193.878C325.249 193.878 344.319 226.721 349.087 270.688H352.795C359.681 228.84 384.048 193.878 433.842 193.878C510.652 193.878 522.835 241.553 522.835 298.233V391.464C522.835 443.907 524.954 486.284 528.662 520.187C559.916 512.77 592.758 508.003 628.25 508.003C670.098 508.003 720.421 520.716 720.421 577.396C720.421 628.779 666.919 653.147 610.239 653.147C543.494 653.147 485.755 623.482 453.971 558.856C343.789 609.18 240.494 704 114.95 704C36.0211 704 0 660.033 0 608.65C0 563.094 23.3078 521.776 84.2257 521.776C119.717 521.776 144.084 550.91 144.084 571.04C93.231 563.094 85.2852 635.136 145.144 635.136C260.093 635.136 349.616 583.223 448.144 545.613C434.901 512.77 426.956 472.512 426.956 423.248V298.233C426.956 257.974 413.713 250.029 398.88 250.029C364.448 250.029 351.205 279.693 350.146 328.427C350.146 370.275 351.205 425.896 354.384 466.155H248.439C254.266 416.361 254.266 338.492 254.266 298.233C254.266 257.974 241.023 250.029 226.191 250.029C190.7 250.029 177.457 281.812 177.457 333.725C177.457 373.983 177.457 429.604 183.284 466.155ZM530.251 533.43C541.375 618.715 564.683 644.141 599.645 644.141C635.666 644.141 647.849 619.774 647.849 596.467C647.849 552.5 625.071 528.662 576.867 528.662C560.975 528.662 545.613 530.251 530.251 533.43Z" fill="#DDDCDC"/>
<path d="M615.102 180.105C577.492 180.105 553.654 161.035 553.654 132.96C553.654 104.355 578.021 84.7555 613.513 84.7555C650.064 84.7555 672.312 104.355 672.312 132.96C672.312 161.035 649.534 180.105 615.102 180.105ZM665.955 466.155H560.011C565.838 431.723 565.838 378.221 565.838 340.081C565.838 301.941 565.838 248.439 560.011 211.889L665.955 201.294C660.128 237.845 660.128 293.466 660.128 333.725C660.128 373.983 660.128 429.604 665.955 466.155Z" fill="#DDDCDC"/>
<path d="M704.314 330.017C704.314 263.801 731.86 195.997 836.745 195.997C898.193 195.997 928.426 214.538 941.669 238.817C941.669 238.817 950.497 265.303 919.597 276.339C939.461 243.231 887.598 205.709 836.745 205.709C809.729 205.709 785.362 228.84 785.362 293.995C785.362 367.097 808.67 405.767 874.885 405.767C963.348 405.767 984.007 334.254 984.007 314.655C1007.32 313.065 1030.62 324.719 1030.62 361.8C1030.62 429.074 968.116 487.344 875.415 487.344C751.989 487.344 704.314 413.183 704.314 330.017Z" fill="#DDDCDC"/>
<path d="M1155.17 326.838V333.725C1155.17 373.983 1155.17 429.604 1160.99 466.155H1055.05C1060.88 430.134 1060.87 373.983 1060.87 333.725C1060.87 293.995 1060.88 248.439 1055.05 211.889L1155.17 201.294V275.985H1157.28C1172.12 224.602 1197.01 195.997 1237.8 195.997C1275.94 195.997 1294.48 214.537 1294.48 246.85C1294.48 298.233 1262.7 317.833 1233.56 317.833C1219.79 317.833 1206.55 313.595 1197.54 306.179C1221.91 295.055 1233.56 224.072 1206.55 224.602C1187.48 224.602 1157.81 271.217 1155.17 326.838Z" fill="#DDDCDC"/>
<path d="M1450.32 471.452C1355.5 471.452 1310.47 406.826 1310.47 328.957C1310.47 251.088 1356.03 193.878 1450.32 193.878C1544.08 193.878 1588.58 251.088 1588.58 330.546C1588.58 408.945 1544.08 471.452 1450.32 471.452ZM1476.81 458.739C1495.88 458.739 1498.52 424.307 1498.52 404.707C1498.52 318.892 1458.8 207.121 1421.18 207.121C1402.11 207.121 1398.41 239.964 1398.41 260.623C1398.41 332.665 1440.78 458.739 1476.81 458.739Z" fill="#DDDCDC"/>
<path d="M1623.64 373.983V201.294C1542.06 173.219 1476.38 68.8638 1374.67 68.8638C1314.81 68.8638 1322.76 140.906 1373.61 132.96C1373.61 153.09 1349.25 182.224 1313.75 182.224C1252.84 182.224 1229.53 140.906 1229.53 95.3499C1229.53 43.9669 1265.55 0 1344.48 0C1477.97 0 1537.3 151.5 1637.41 191.759L1713.16 137.728H1718.99V201.294H1771.43V211.889H1718.99V371.335C1718.99 391.464 1725.88 410.534 1749.72 410.534C1754.48 410.534 1760.31 410.005 1767.2 407.886C1759.25 443.907 1737 471.452 1696.21 471.452C1635.3 471.452 1623.64 421.658 1623.64 373.983Z" fill="#DDDCDC"/>
<path d="M1854.05 180.105C1816.44 180.105 1792.6 161.035 1792.6 132.96C1792.6 104.355 1816.97 84.7555 1852.46 84.7555C1889.01 84.7555 1911.26 104.355 1911.26 132.96C1911.26 161.035 1888.48 180.105 1854.05 180.105ZM1904.9 466.155H1798.96C1804.79 431.723 1804.79 378.221 1804.79 340.081C1804.79 301.941 1804.79 248.439 1798.96 211.889L1904.9 201.294C1899.08 237.845 1899.08 293.466 1899.08 333.725C1899.08 373.983 1899.08 429.604 1904.9 466.155Z" fill="#DDDCDC"/>
<path d="M1952.91 335.314C1952.91 269.099 1980.45 201.294 2085.34 201.294C2146.79 201.294 2177.02 219.835 2190.26 244.114C2190.26 244.114 2199.09 270.6 2168.19 281.636C2188.05 248.528 2136.19 211.006 2085.34 211.006C2058.32 211.006 2033.95 234.137 2033.95 299.293C2033.95 372.394 2057.26 411.064 2123.48 411.064C2211.94 411.064 2232.6 339.552 2232.6 319.952C2255.91 318.363 2279.22 330.017 2279.22 367.097C2279.22 434.372 2216.71 492.641 2124.01 492.641C2000.58 492.641 1952.91 418.48 1952.91 335.314Z" fill="#DDDCDC"/>
</svg>
