<svg width="533" height="176" viewBox="0 0 533 176" fill="none" xmlns="http://www.w3.org/2000/svg">
<g filter="url(#filter0_d_128_400)">
<mask id="path-1-outside-1_128_400" maskUnits="userSpaceOnUse" x="6" y="0" width="521" height="164" fill="black">
<rect fill="white" x="6" width="521" height="164"/>
<path d="M49.52 107.6H25.52C26.84 99.44 26.84 86.72 26.84 77.6C26.84 68.6 26.84 57.08 25.52 48.8L48.2 47.6V63.32H48.8C50.36 53.84 55.88 45.92 67.16 45.92C81.68 45.92 86 53.36 87.08 63.32H87.92C89.48 53.84 95 45.92 106.28 45.92C123.68 45.92 126.44 56.72 126.44 69.56V90.68C126.44 102.56 126.92 112.16 127.76 119.84C134.84 118.16 142.28 117.08 150.32 117.08C159.8 117.08 171.2 119.96 171.2 132.8C171.2 144.44 159.08 149.96 146.24 149.96C131.12 149.96 118.04 143.24 110.84 128.6C85.88 140 62.48 161.48 34.04 161.48C16.16 161.48 8 151.52 8 139.88C8 129.56 13.28 120.2 27.08 120.2C35.12 120.2 40.64 126.8 40.64 131.36C29.12 129.56 27.32 145.88 40.88 145.88C66.92 145.88 87.2 134.12 109.52 125.6C106.52 118.16 104.72 109.04 104.72 97.88V69.56C104.72 60.44 101.72 58.64 98.36 58.64C90.56 58.64 87.56 65.36 87.32 76.4C87.32 85.88 87.56 98.48 88.28 107.6H64.28C65.6 96.32 65.6 78.68 65.6 69.56C65.6 60.44 62.6 58.64 59.24 58.64C51.2 58.64 48.2 65.84 48.2 77.6C48.2 86.72 48.2 99.32 49.52 107.6ZM128.12 122.84C130.64 142.16 135.92 147.92 143.84 147.92C152 147.92 154.76 142.4 154.76 137.12C154.76 127.16 149.6 121.76 138.68 121.76C135.08 121.76 131.6 122.12 128.12 122.84Z"/>
<path d="M147.342 42.8C138.822 42.8 133.422 38.48 133.422 32.12C133.422 25.64 138.942 21.2 146.982 21.2C155.262 21.2 160.302 25.64 160.302 32.12C160.302 38.48 155.142 42.8 147.342 42.8ZM158.862 107.6H134.862C136.182 99.8 136.182 87.68 136.182 79.04C136.182 70.4 136.182 58.28 134.862 50L158.862 47.6C157.542 55.88 157.542 68.48 157.542 77.6C157.542 86.72 157.542 99.32 158.862 107.6Z"/>
<path d="M167.551 76.76C167.551 61.76 173.791 46.4 197.551 46.4C211.471 46.4 218.32 50.6001 221.32 56.1001C221.32 56.1001 223.32 62.1001 216.32 64.6001C220.82 57.1001 209.071 48.6001 197.551 48.6001C191.431 48.6001 185.911 53.84 185.911 68.6C185.911 85.16 191.191 93.92 206.191 93.92C226.231 93.92 230.911 77.72 230.911 73.28C236.191 72.92 241.471 75.56 241.471 83.96C241.471 99.2 227.311 112.4 206.311 112.4C178.351 112.4 167.551 95.6 167.551 76.76Z"/>
<path d="M269.684 76.04V77.6C269.684 86.72 269.684 99.32 271.004 107.6H247.004C248.324 99.44 248.324 86.72 248.324 77.6C248.324 68.6 248.324 58.28 247.004 50L269.684 47.6V64.52H270.164C273.524 52.88 279.164 46.4 288.404 46.4C297.044 46.4 301.244 50.6 301.244 57.92C301.244 69.56 294.044 74 287.444 74C284.324 74 281.324 73.04 279.284 71.36C284.804 68.84 287.444 52.76 281.324 52.88C277.004 52.88 270.284 63.44 269.684 76.04Z"/>
<path d="M336.547 108.8C315.067 108.8 304.867 94.16 304.867 76.52C304.867 58.88 315.187 45.92 336.547 45.92C357.787 45.92 367.867 58.88 367.867 76.88C367.867 94.64 357.787 108.8 336.547 108.8ZM342.547 105.92C346.867 105.92 347.467 98.12 347.467 93.68C347.467 74.24 338.467 48.92 329.947 48.92C325.627 48.92 324.787 56.36 324.787 61.04C324.787 77.36 334.387 105.92 342.547 105.92Z"/>
<path d="M375.81 86.72V47.6C357.33 41.24 342.45 17.6 319.41 17.6C305.85 17.6 307.65 33.92 319.17 32.12C319.17 36.68 313.65 43.28 305.61 43.28C291.81 43.28 286.53 33.92 286.53 23.6C286.53 11.96 294.69 2 312.57 2C342.81 2 356.25 36.32 378.93 45.44L396.09 33.2H397.41V47.6H409.29V50H397.41V86.12C397.41 90.68 398.97 95 404.37 95C405.45 95 406.77 94.88 408.33 94.4C406.53 102.56 401.49 108.8 392.25 108.8C378.45 108.8 375.81 97.52 375.81 86.72Z"/>
<path d="M428.006 42.8C419.486 42.8 414.086 38.48 414.086 32.12C414.086 25.64 419.606 21.2 427.646 21.2C435.926 21.2 440.966 25.64 440.966 32.12C440.966 38.48 435.806 42.8 428.006 42.8ZM439.526 107.6H415.526C416.846 99.8 416.846 87.68 416.846 79.04C416.846 70.4 416.846 58.28 415.526 50L439.526 47.6C438.206 55.88 438.206 68.48 438.206 77.6C438.206 86.72 438.206 99.32 439.526 107.6Z"/>
<path d="M450.4 77.96C450.4 62.96 456.64 47.6 480.4 47.6C494.32 47.6 501.169 51.8001 504.169 57.3001C504.169 57.3001 506.169 63.3001 499.169 65.8001C503.669 58.3001 491.92 49.8001 480.4 49.8001C474.28 49.8001 468.76 55.04 468.76 69.8C468.76 86.36 474.04 95.12 489.04 95.12C509.08 95.12 513.76 78.92 513.76 74.48C519.04 74.12 524.32 76.76 524.32 85.16C524.32 100.4 510.16 113.6 489.16 113.6C461.2 113.6 450.4 96.8 450.4 77.96Z"/>
</mask>
<path d="M49.52 107.6H25.52C26.84 99.44 26.84 86.72 26.84 77.6C26.84 68.6 26.84 57.08 25.52 48.8L48.2 47.6V63.32H48.8C50.36 53.84 55.88 45.92 67.16 45.92C81.68 45.92 86 53.36 87.08 63.32H87.92C89.48 53.84 95 45.92 106.28 45.92C123.68 45.92 126.44 56.72 126.44 69.56V90.68C126.44 102.56 126.92 112.16 127.76 119.84C134.84 118.16 142.28 117.08 150.32 117.08C159.8 117.08 171.2 119.96 171.2 132.8C171.2 144.44 159.08 149.96 146.24 149.96C131.12 149.96 118.04 143.24 110.84 128.6C85.88 140 62.48 161.48 34.04 161.48C16.16 161.48 8 151.52 8 139.88C8 129.56 13.28 120.2 27.08 120.2C35.12 120.2 40.64 126.8 40.64 131.36C29.12 129.56 27.32 145.88 40.88 145.88C66.92 145.88 87.2 134.12 109.52 125.6C106.52 118.16 104.72 109.04 104.72 97.88V69.56C104.72 60.44 101.72 58.64 98.36 58.64C90.56 58.64 87.56 65.36 87.32 76.4C87.32 85.88 87.56 98.48 88.28 107.6H64.28C65.6 96.32 65.6 78.68 65.6 69.56C65.6 60.44 62.6 58.64 59.24 58.64C51.2 58.64 48.2 65.84 48.2 77.6C48.2 86.72 48.2 99.32 49.52 107.6ZM128.12 122.84C130.64 142.16 135.92 147.92 143.84 147.92C152 147.92 154.76 142.4 154.76 137.12C154.76 127.16 149.6 121.76 138.68 121.76C135.08 121.76 131.6 122.12 128.12 122.84Z" fill="white"/>
<path d="M147.342 42.8C138.822 42.8 133.422 38.48 133.422 32.12C133.422 25.64 138.942 21.2 146.982 21.2C155.262 21.2 160.302 25.64 160.302 32.12C160.302 38.48 155.142 42.8 147.342 42.8ZM158.862 107.6H134.862C136.182 99.8 136.182 87.68 136.182 79.04C136.182 70.4 136.182 58.28 134.862 50L158.862 47.6C157.542 55.88 157.542 68.48 157.542 77.6C157.542 86.72 157.542 99.32 158.862 107.6Z" fill="white"/>
<path d="M167.551 76.76C167.551 61.76 173.791 46.4 197.551 46.4C211.471 46.4 218.32 50.6001 221.32 56.1001C221.32 56.1001 223.32 62.1001 216.32 64.6001C220.82 57.1001 209.071 48.6001 197.551 48.6001C191.431 48.6001 185.911 53.84 185.911 68.6C185.911 85.16 191.191 93.92 206.191 93.92C226.231 93.92 230.911 77.72 230.911 73.28C236.191 72.92 241.471 75.56 241.471 83.96C241.471 99.2 227.311 112.4 206.311 112.4C178.351 112.4 167.551 95.6 167.551 76.76Z" fill="white"/>
<path d="M269.684 76.04V77.6C269.684 86.72 269.684 99.32 271.004 107.6H247.004C248.324 99.44 248.324 86.72 248.324 77.6C248.324 68.6 248.324 58.28 247.004 50L269.684 47.6V64.52H270.164C273.524 52.88 279.164 46.4 288.404 46.4C297.044 46.4 301.244 50.6 301.244 57.92C301.244 69.56 294.044 74 287.444 74C284.324 74 281.324 73.04 279.284 71.36C284.804 68.84 287.444 52.76 281.324 52.88C277.004 52.88 270.284 63.44 269.684 76.04Z" fill="white"/>
<path d="M336.547 108.8C315.067 108.8 304.867 94.16 304.867 76.52C304.867 58.88 315.187 45.92 336.547 45.92C357.787 45.92 367.867 58.88 367.867 76.88C367.867 94.64 357.787 108.8 336.547 108.8ZM342.547 105.92C346.867 105.92 347.467 98.12 347.467 93.68C347.467 74.24 338.467 48.92 329.947 48.92C325.627 48.92 324.787 56.36 324.787 61.04C324.787 77.36 334.387 105.92 342.547 105.92Z" fill="white"/>
<path d="M375.81 86.72V47.6C357.33 41.24 342.45 17.6 319.41 17.6C305.85 17.6 307.65 33.92 319.17 32.12C319.17 36.68 313.65 43.28 305.61 43.28C291.81 43.28 286.53 33.92 286.53 23.6C286.53 11.96 294.69 2 312.57 2C342.81 2 356.25 36.32 378.93 45.44L396.09 33.2H397.41V47.6H409.29V50H397.41V86.12C397.41 90.68 398.97 95 404.37 95C405.45 95 406.77 94.88 408.33 94.4C406.53 102.56 401.49 108.8 392.25 108.8C378.45 108.8 375.81 97.52 375.81 86.72Z" fill="white"/>
<path d="M428.006 42.8C419.486 42.8 414.086 38.48 414.086 32.12C414.086 25.64 419.606 21.2 427.646 21.2C435.926 21.2 440.966 25.64 440.966 32.12C440.966 38.48 435.806 42.8 428.006 42.8ZM439.526 107.6H415.526C416.846 99.8 416.846 87.68 416.846 79.04C416.846 70.4 416.846 58.28 415.526 50L439.526 47.6C438.206 55.88 438.206 68.48 438.206 77.6C438.206 86.72 438.206 99.32 439.526 107.6Z" fill="white"/>
<path d="M450.4 77.96C450.4 62.96 456.64 47.6 480.4 47.6C494.32 47.6 501.169 51.8001 504.169 57.3001C504.169 57.3001 506.169 63.3001 499.169 65.8001C503.669 58.3001 491.92 49.8001 480.4 49.8001C474.28 49.8001 468.76 55.04 468.76 69.8C468.76 86.36 474.04 95.12 489.04 95.12C509.08 95.12 513.76 78.92 513.76 74.48C519.04 74.12 524.32 76.76 524.32 85.16C524.32 100.4 510.16 113.6 489.16 113.6C461.2 113.6 450.4 96.8 450.4 77.96Z" fill="white"/>
<path d="M49.52 107.6H25.52C26.84 99.44 26.84 86.72 26.84 77.6C26.84 68.6 26.84 57.08 25.52 48.8L48.2 47.6V63.32H48.8C50.36 53.84 55.88 45.92 67.16 45.92C81.68 45.92 86 53.36 87.08 63.32H87.92C89.48 53.84 95 45.92 106.28 45.92C123.68 45.92 126.44 56.72 126.44 69.56V90.68C126.44 102.56 126.92 112.16 127.76 119.84C134.84 118.16 142.28 117.08 150.32 117.08C159.8 117.08 171.2 119.96 171.2 132.8C171.2 144.44 159.08 149.96 146.24 149.96C131.12 149.96 118.04 143.24 110.84 128.6C85.88 140 62.48 161.48 34.04 161.48C16.16 161.48 8 151.52 8 139.88C8 129.56 13.28 120.2 27.08 120.2C35.12 120.2 40.64 126.8 40.64 131.36C29.12 129.56 27.32 145.88 40.88 145.88C66.92 145.88 87.2 134.12 109.52 125.6C106.52 118.16 104.72 109.04 104.72 97.88V69.56C104.72 60.44 101.72 58.64 98.36 58.64C90.56 58.64 87.56 65.36 87.32 76.4C87.32 85.88 87.56 98.48 88.28 107.6H64.28C65.6 96.32 65.6 78.68 65.6 69.56C65.6 60.44 62.6 58.64 59.24 58.64C51.2 58.64 48.2 65.84 48.2 77.6C48.2 86.72 48.2 99.32 49.52 107.6ZM128.12 122.84C130.64 142.16 135.92 147.92 143.84 147.92C152 147.92 154.76 142.4 154.76 137.12C154.76 127.16 149.6 121.76 138.68 121.76C135.08 121.76 131.6 122.12 128.12 122.84Z" stroke="#840303" stroke-width="4" mask="url(#path-1-outside-1_128_400)"/>
<path d="M147.342 42.8C138.822 42.8 133.422 38.48 133.422 32.12C133.422 25.64 138.942 21.2 146.982 21.2C155.262 21.2 160.302 25.64 160.302 32.12C160.302 38.48 155.142 42.8 147.342 42.8ZM158.862 107.6H134.862C136.182 99.8 136.182 87.68 136.182 79.04C136.182 70.4 136.182 58.28 134.862 50L158.862 47.6C157.542 55.88 157.542 68.48 157.542 77.6C157.542 86.72 157.542 99.32 158.862 107.6Z" stroke="#840303" stroke-width="4" mask="url(#path-1-outside-1_128_400)"/>
<path d="M167.551 76.76C167.551 61.76 173.791 46.4 197.551 46.4C211.471 46.4 218.32 50.6001 221.32 56.1001C221.32 56.1001 223.32 62.1001 216.32 64.6001C220.82 57.1001 209.071 48.6001 197.551 48.6001C191.431 48.6001 185.911 53.84 185.911 68.6C185.911 85.16 191.191 93.92 206.191 93.92C226.231 93.92 230.911 77.72 230.911 73.28C236.191 72.92 241.471 75.56 241.471 83.96C241.471 99.2 227.311 112.4 206.311 112.4C178.351 112.4 167.551 95.6 167.551 76.76Z" stroke="#840303" stroke-width="4" mask="url(#path-1-outside-1_128_400)"/>
<path d="M269.684 76.04V77.6C269.684 86.72 269.684 99.32 271.004 107.6H247.004C248.324 99.44 248.324 86.72 248.324 77.6C248.324 68.6 248.324 58.28 247.004 50L269.684 47.6V64.52H270.164C273.524 52.88 279.164 46.4 288.404 46.4C297.044 46.4 301.244 50.6 301.244 57.92C301.244 69.56 294.044 74 287.444 74C284.324 74 281.324 73.04 279.284 71.36C284.804 68.84 287.444 52.76 281.324 52.88C277.004 52.88 270.284 63.44 269.684 76.04Z" stroke="#840303" stroke-width="4" mask="url(#path-1-outside-1_128_400)"/>
<path d="M336.547 108.8C315.067 108.8 304.867 94.16 304.867 76.52C304.867 58.88 315.187 45.92 336.547 45.92C357.787 45.92 367.867 58.88 367.867 76.88C367.867 94.64 357.787 108.8 336.547 108.8ZM342.547 105.92C346.867 105.92 347.467 98.12 347.467 93.68C347.467 74.24 338.467 48.92 329.947 48.92C325.627 48.92 324.787 56.36 324.787 61.04C324.787 77.36 334.387 105.92 342.547 105.92Z" stroke="#840303" stroke-width="4" mask="url(#path-1-outside-1_128_400)"/>
<path d="M375.81 86.72V47.6C357.33 41.24 342.45 17.6 319.41 17.6C305.85 17.6 307.65 33.92 319.17 32.12C319.17 36.68 313.65 43.28 305.61 43.28C291.81 43.28 286.53 33.92 286.53 23.6C286.53 11.96 294.69 2 312.57 2C342.81 2 356.25 36.32 378.93 45.44L396.09 33.2H397.41V47.6H409.29V50H397.41V86.12C397.41 90.68 398.97 95 404.37 95C405.45 95 406.77 94.88 408.33 94.4C406.53 102.56 401.49 108.8 392.25 108.8C378.45 108.8 375.81 97.52 375.81 86.72Z" stroke="#840303" stroke-width="4" mask="url(#path-1-outside-1_128_400)"/>
<path d="M428.006 42.8C419.486 42.8 414.086 38.48 414.086 32.12C414.086 25.64 419.606 21.2 427.646 21.2C435.926 21.2 440.966 25.64 440.966 32.12C440.966 38.48 435.806 42.8 428.006 42.8ZM439.526 107.6H415.526C416.846 99.8 416.846 87.68 416.846 79.04C416.846 70.4 416.846 58.28 415.526 50L439.526 47.6C438.206 55.88 438.206 68.48 438.206 77.6C438.206 86.72 438.206 99.32 439.526 107.6Z" stroke="#840303" stroke-width="4" mask="url(#path-1-outside-1_128_400)"/>
<path d="M450.4 77.96C450.4 62.96 456.64 47.6 480.4 47.6C494.32 47.6 501.169 51.8001 504.169 57.3001C504.169 57.3001 506.169 63.3001 499.169 65.8001C503.669 58.3001 491.92 49.8001 480.4 49.8001C474.28 49.8001 468.76 55.04 468.76 69.8C468.76 86.36 474.04 95.12 489.04 95.12C509.08 95.12 513.76 78.92 513.76 74.48C519.04 74.12 524.32 76.76 524.32 85.16C524.32 100.4 510.16 113.6 489.16 113.6C461.2 113.6 450.4 96.8 450.4 77.96Z" stroke="#840303" stroke-width="4" mask="url(#path-1-outside-1_128_400)"/>
</g>
<defs>
<filter id="filter0_d_128_400" x="0" y="0" width="532.32" height="175.48" filterUnits="userSpaceOnUse" color-interpolation-filters="sRGB">
<feFlood flood-opacity="0" result="BackgroundImageFix"/>
<feColorMatrix in="SourceAlpha" type="matrix" values="0 0 0 0 0 0 0 0 0 0 0 0 0 0 0 0 0 0 127 0" result="hardAlpha"/>
<feOffset dy="6"/>
<feGaussianBlur stdDeviation="3"/>
<feComposite in2="hardAlpha" operator="out"/>
<feColorMatrix type="matrix" values="0 0 0 0 0 0 0 0 0 0 0 0 0 0 0 0 0 0 0.25 0"/>
<feBlend mode="normal" in2="BackgroundImageFix" result="effect1_dropShadow_128_400"/>
<feBlend mode="normal" in="SourceGraphic" in2="effect1_dropShadow_128_400" result="shape"/>
</filter>
</defs>
</svg>
