<svg width="2280" height="704" viewBox="0 0 2280 704" fill="none" xmlns="http://www.w3.org/2000/svg">
<path d="M183.284 466.155H77.3393C83.1663 430.134 83.1663 373.983 83.1663 333.725C83.1663 293.995 83.1663 243.142 77.3393 206.591L177.457 201.294V270.688H180.105C186.992 228.84 211.359 193.878 261.153 193.878C325.249 193.878 344.319 226.721 349.087 270.688H352.795C359.681 228.84 384.048 193.878 433.842 193.878C510.652 193.878 522.835 241.553 522.835 298.233V391.464C522.835 443.907 524.954 486.284 528.662 520.187C559.916 512.77 592.758 508.003 628.25 508.003C670.098 508.003 720.421 520.716 720.421 577.396C720.421 628.779 666.919 653.147 610.239 653.147C543.494 653.147 485.755 623.482 453.971 558.856C343.789 609.18 240.494 704 114.95 704C36.0211 704 0 660.033 0 608.65C0 563.094 23.3078 521.776 84.2257 521.776C119.717 521.776 144.084 550.91 144.084 571.04C93.231 563.094 85.2852 635.136 145.144 635.136C260.093 635.136 349.616 583.223 448.144 545.613C434.901 512.77 426.956 472.512 426.956 423.248V298.233C426.956 257.974 413.713 250.029 398.88 250.029C364.448 250.029 351.205 279.693 350.146 328.427C350.146 370.275 351.205 425.896 354.384 466.155H248.439C254.266 416.361 254.266 338.492 254.266 298.233C254.266 257.974 241.023 250.029 226.191 250.029C190.7 250.029 177.457 281.812 177.457 333.725C177.457 373.983 177.457 429.604 183.284 466.155ZM530.251 533.43C541.375 618.715 564.683 644.141 599.645 644.141C635.666 644.141 647.849 619.774 647.849 596.467C647.849 552.5 625.071 528.662 576.867 528.662C560.975 528.662 545.613 530.251 530.251 533.43Z" fill="#BACBEF"/>
<path d="M615.102 180.105C577.492 180.105 553.654 161.035 553.654 132.96C553.654 104.355 578.021 84.7555 613.513 84.7555C650.064 84.7555 672.312 104.355 672.312 132.96C672.312 161.035 649.534 180.105 615.102 180.105ZM665.955 466.155H560.011C565.838 431.723 565.838 378.221 565.838 340.081C565.838 301.941 565.838 248.439 560.011 211.889L665.955 201.294C660.128 237.845 660.128 293.466 660.128 333.725C660.128 373.983 660.128 429.604 665.955 466.155Z" fill="#BACBEF"/>
<path d="M704.314 330.017C704.314 263.801 731.86 195.997 836.745 195.997C898.193 195.997 928.426 214.538 941.669 238.817C941.669 238.817 950.497 265.303 919.597 276.339C939.461 243.231 887.598 205.709 836.745 205.709C809.729 205.709 785.362 228.84 785.362 293.995C785.362 367.097 808.67 405.767 874.885 405.767C963.348 405.767 984.007 334.254 984.007 314.655C1007.32 313.065 1030.62 324.719 1030.62 361.8C1030.62 429.074 968.116 487.344 875.415 487.344C751.989 487.344 704.314 413.183 704.314 330.017Z" fill="#BACBEF"/>
<path d="M1155.17 326.838V333.725C1155.17 373.983 1155.17 429.604 1160.99 466.155H1055.05C1060.88 430.134 1060.87 373.983 1060.87 333.725C1060.87 293.995 1060.88 248.439 1055.05 211.889L1155.17 201.294V275.985H1157.28C1172.12 224.602 1197.01 195.997 1237.8 195.997C1275.94 195.997 1294.48 214.537 1294.48 246.85C1294.48 298.233 1262.7 317.833 1233.56 317.833C1219.79 317.833 1206.55 313.595 1197.54 306.179C1221.91 295.055 1233.56 224.072 1206.55 224.602C1187.48 224.602 1157.81 271.217 1155.17 326.838Z" fill="#BACBEF"/>
<path d="M1450.32 471.452C1355.5 471.452 1310.47 406.826 1310.47 328.957C1310.47 251.088 1356.03 193.878 1450.32 193.878C1544.08 193.878 1588.58 251.088 1588.58 330.546C1588.58 408.945 1544.08 471.452 1450.32 471.452ZM1476.81 458.739C1495.88 458.739 1498.52 424.307 1498.52 404.707C1498.52 318.892 1458.8 207.121 1421.18 207.121C1402.11 207.121 1398.41 239.964 1398.41 260.623C1398.41 332.665 1440.78 458.739 1476.81 458.739Z" fill="#BACBEF"/>
<path d="M1623.64 373.983V201.294C1542.06 173.219 1476.38 68.8638 1374.67 68.8638C1314.81 68.8638 1322.76 140.906 1373.61 132.96C1373.61 153.09 1349.25 182.224 1313.75 182.224C1252.84 182.224 1229.53 140.906 1229.53 95.3499C1229.53 43.9669 1265.55 0 1344.48 0C1477.97 0 1537.3 151.5 1637.41 191.759L1713.16 137.728H1718.99V201.294H1771.43V211.889H1718.99V371.335C1718.99 391.464 1725.88 410.534 1749.72 410.534C1754.48 410.534 1760.31 410.005 1767.2 407.886C1759.25 443.907 1737 471.452 1696.21 471.452C1635.3 471.452 1623.64 421.658 1623.64 373.983Z" fill="#BACBEF"/>
<path d="M1854.05 180.105C1816.44 180.105 1792.6 161.035 1792.6 132.96C1792.6 104.355 1816.97 84.7555 1852.46 84.7555C1889.01 84.7555 1911.26 104.355 1911.26 132.96C1911.26 161.035 1888.48 180.105 1854.05 180.105ZM1904.9 466.155H1798.96C1804.79 431.723 1804.79 378.221 1804.79 340.081C1804.79 301.941 1804.79 248.439 1798.96 211.889L1904.9 201.294C1899.08 237.845 1899.08 293.466 1899.08 333.725C1899.08 373.983 1899.08 429.604 1904.9 466.155Z" fill="#BACBEF"/>
<path d="M1952.91 335.314C1952.91 269.099 1980.45 201.294 2085.34 201.294C2146.79 201.294 2177.02 219.835 2190.26 244.114C2190.26 244.114 2199.09 270.6 2168.19 281.636C2188.05 248.528 2136.19 211.006 2085.34 211.006C2058.32 211.006 2033.95 234.137 2033.95 299.293C2033.95 372.394 2057.26 411.064 2123.48 411.064C2211.94 411.064 2232.6 339.552 2232.6 319.952C2255.91 318.363 2279.22 330.017 2279.22 367.097C2279.22 434.372 2216.71 492.641 2124.01 492.641C2000.58 492.641 1952.91 418.48 1952.91 335.314Z" fill="#BACBEF"/>
</svg>
